<mxfile host="app.diagrams.net" agent="Mozilla/5.0 (Windows NT 10.0; Win64; x64) AppleWebKit/537.36 (KHTML, like Gecko) Chrome/128.0.0.0 Safari/537.36" version="24.7.15">
  <diagram name="Page-1" id="PRZS8lZKRYY2VSGGr3TJ">
    <mxGraphModel dx="420" dy="1074" grid="1" gridSize="10" guides="1" tooltips="1" connect="1" arrows="1" fold="1" page="1" pageScale="1" pageWidth="1169" pageHeight="827" math="0" shadow="0">
      <root>
        <mxCell id="0" />
        <mxCell id="1" parent="0" />
        <mxCell id="l2NazpN1zg4X8K2ymPKM-1" value="" style="strokeWidth=1;shadow=0;dashed=0;align=center;html=1;shape=mxgraph.mockup.containers.browserWindow;rSize=0;strokeColor=#858585;strokeColor2=#008cff;strokeColor3=#c4c4c4;mainText=,;recursiveResize=0;" parent="1" vertex="1">
          <mxGeometry x="60" y="40" width="1080" height="820" as="geometry" />
        </mxCell>
        <mxCell id="l2NazpN1zg4X8K2ymPKM-2" value="Generate your CV!" style="strokeWidth=1;shadow=0;dashed=0;align=center;html=1;shape=mxgraph.mockup.containers.anchor;fontSize=17;fontColor=#666666;align=left;whiteSpace=wrap;" parent="l2NazpN1zg4X8K2ymPKM-1" vertex="1">
          <mxGeometry x="60" y="12" width="190" height="26" as="geometry" />
        </mxCell>
        <mxCell id="l2NazpN1zg4X8K2ymPKM-3" value="https://www.draw.io" style="strokeWidth=1;shadow=0;dashed=0;align=center;html=1;shape=mxgraph.mockup.containers.anchor;rSize=0;fontSize=17;fontColor=#666666;align=left;" parent="l2NazpN1zg4X8K2ymPKM-1" vertex="1">
          <mxGeometry x="130" y="60" width="250" height="26" as="geometry" />
        </mxCell>
        <mxCell id="l2NazpN1zg4X8K2ymPKM-4" value="" style="html=1;shadow=0;dashed=0;fillColor=#F8F9FA;strokeColor=none;fontSize=16;fontColor=#181819;align=left;spacing=2;spacingLeft=55;" parent="l2NazpN1zg4X8K2ymPKM-1" vertex="1">
          <mxGeometry y="110" width="1080" height="60" as="geometry" />
        </mxCell>
        <mxCell id="l2NazpN1zg4X8K2ymPKM-7" value="" style="shape=image;html=1;verticalAlign=top;verticalLabelPosition=bottom;labelBackgroundColor=#ffffff;imageAspect=0;aspect=fixed;image=https://cdn0.iconfinder.com/data/icons/phosphor-fill-vol-4/256/placeholder-fill-128.png" parent="l2NazpN1zg4X8K2ymPKM-1" vertex="1">
          <mxGeometry x="40" y="125" width="34" height="34" as="geometry" />
        </mxCell>
        <mxCell id="l2NazpN1zg4X8K2ymPKM-8" value="&lt;b style=&quot;font-size: 16px;&quot;&gt;CV Generator&lt;/b&gt;" style="text;html=1;align=left;verticalAlign=middle;whiteSpace=wrap;rounded=0;fontSize=16;" parent="l2NazpN1zg4X8K2ymPKM-1" vertex="1">
          <mxGeometry x="85" y="127" width="140" height="30" as="geometry" />
        </mxCell>
        <mxCell id="l2NazpN1zg4X8K2ymPKM-9" value="&lt;b style=&quot;&quot;&gt;&lt;font style=&quot;font-size: 20px;&quot;&gt;Personal Details&lt;/font&gt;&lt;/b&gt;" style="text;html=1;align=center;verticalAlign=middle;whiteSpace=wrap;rounded=0;fontSize=28;" parent="l2NazpN1zg4X8K2ymPKM-1" vertex="1">
          <mxGeometry x="382.5" y="210" width="285" height="30" as="geometry" />
        </mxCell>
        <mxCell id="l2NazpN1zg4X8K2ymPKM-28" value="" style="group" parent="l2NazpN1zg4X8K2ymPKM-1" vertex="1" connectable="0">
          <mxGeometry x="250" y="280" width="550" height="230" as="geometry" />
        </mxCell>
        <mxCell id="l2NazpN1zg4X8K2ymPKM-10" value="" style="rounded=1;whiteSpace=wrap;html=1;arcSize=4;textShadow=0;shadow=1;strokeColor=none;" parent="l2NazpN1zg4X8K2ymPKM-28" vertex="1">
          <mxGeometry width="550" height="230" as="geometry" />
        </mxCell>
        <mxCell id="l2NazpN1zg4X8K2ymPKM-15" value="" style="group" parent="l2NazpN1zg4X8K2ymPKM-28" vertex="1" connectable="0">
          <mxGeometry x="42.5" y="30" width="210" height="58" as="geometry" />
        </mxCell>
        <mxCell id="l2NazpN1zg4X8K2ymPKM-11" value="First name*" style="fillColor=none;strokeColor=none;html=1;fontSize=11;fontStyle=0;align=left;fontColor=#596780;fontStyle=1;fontSize=11" parent="l2NazpN1zg4X8K2ymPKM-15" vertex="1">
          <mxGeometry width="210" height="20" as="geometry" />
        </mxCell>
        <mxCell id="l2NazpN1zg4X8K2ymPKM-12" value="&lt;font color=&quot;#a1a1a1&quot;&gt;Jane&lt;/font&gt;" style="rounded=1;arcSize=9;fillColor=#F7F8F9;align=left;spacingLeft=5;strokeColor=#DEE1E6;html=1;strokeWidth=2;fontSize=12" parent="l2NazpN1zg4X8K2ymPKM-15" vertex="1">
          <mxGeometry y="25" width="210" height="33" as="geometry" />
        </mxCell>
        <mxCell id="l2NazpN1zg4X8K2ymPKM-16" value="" style="group" parent="l2NazpN1zg4X8K2ymPKM-28" vertex="1" connectable="0">
          <mxGeometry x="292.5" y="30" width="210" height="58" as="geometry" />
        </mxCell>
        <mxCell id="l2NazpN1zg4X8K2ymPKM-13" value="Last name*" style="fillColor=none;strokeColor=none;html=1;fontSize=11;fontStyle=0;align=left;fontColor=#596780;fontStyle=1;fontSize=11" parent="l2NazpN1zg4X8K2ymPKM-16" vertex="1">
          <mxGeometry width="210" height="20" as="geometry" />
        </mxCell>
        <mxCell id="l2NazpN1zg4X8K2ymPKM-14" value="Smith" style="rounded=1;arcSize=9;fillColor=#F7F8F9;align=left;spacingLeft=5;strokeColor=#DEE1E6;html=1;strokeWidth=2;fontSize=12;fontColor=#A1A1A1;" parent="l2NazpN1zg4X8K2ymPKM-16" vertex="1">
          <mxGeometry y="25" width="210" height="33" as="geometry" />
        </mxCell>
        <mxCell id="l2NazpN1zg4X8K2ymPKM-17" value="" style="group" parent="l2NazpN1zg4X8K2ymPKM-28" vertex="1" connectable="0">
          <mxGeometry x="42.5" y="110" width="210" height="58" as="geometry" />
        </mxCell>
        <mxCell id="l2NazpN1zg4X8K2ymPKM-18" value="Email*" style="fillColor=none;strokeColor=none;html=1;fontSize=11;fontStyle=0;align=left;fontColor=#596780;fontStyle=1;fontSize=11" parent="l2NazpN1zg4X8K2ymPKM-17" vertex="1">
          <mxGeometry width="210" height="20" as="geometry" />
        </mxCell>
        <mxCell id="l2NazpN1zg4X8K2ymPKM-19" value="jane.smith@email.com" style="rounded=1;arcSize=9;fillColor=#F7F8F9;align=left;spacingLeft=5;strokeColor=#DEE1E6;html=1;strokeWidth=2;fontSize=12;fontColor=#A1A1A1;" parent="l2NazpN1zg4X8K2ymPKM-17" vertex="1">
          <mxGeometry y="25" width="210" height="33" as="geometry" />
        </mxCell>
        <mxCell id="l2NazpN1zg4X8K2ymPKM-20" value="" style="group" parent="l2NazpN1zg4X8K2ymPKM-28" vertex="1" connectable="0">
          <mxGeometry x="292.5" y="110" width="210" height="58" as="geometry" />
        </mxCell>
        <mxCell id="l2NazpN1zg4X8K2ymPKM-21" value="Phone number" style="fillColor=none;strokeColor=none;html=1;fontSize=11;fontStyle=0;align=left;fontColor=#596780;fontStyle=1;fontSize=11" parent="l2NazpN1zg4X8K2ymPKM-20" vertex="1">
          <mxGeometry width="210" height="20" as="geometry" />
        </mxCell>
        <mxCell id="l2NazpN1zg4X8K2ymPKM-22" value="123 456 789" style="rounded=1;arcSize=9;fillColor=#F7F8F9;align=left;spacingLeft=5;strokeColor=#DEE1E6;html=1;strokeWidth=2;fontSize=12;fontColor=#A1A1A1;" parent="l2NazpN1zg4X8K2ymPKM-20" vertex="1">
          <mxGeometry y="25" width="210" height="33" as="geometry" />
        </mxCell>
        <mxCell id="l2NazpN1zg4X8K2ymPKM-66" value="" style="group" parent="l2NazpN1zg4X8K2ymPKM-1" vertex="1" connectable="0">
          <mxGeometry x="461" y="550" width="137" height="40" as="geometry" />
        </mxCell>
        <mxCell id="l2NazpN1zg4X8K2ymPKM-29" value="Next step" style="rounded=1;fillColor=#0057D8;strokeColor=none;html=1;whiteSpace=wrap;fontColor=#ffffff;align=center;verticalAlign=middle;fontStyle=0;fontSize=12;sketch=0;" parent="l2NazpN1zg4X8K2ymPKM-66" vertex="1">
          <mxGeometry width="128" height="40" as="geometry" />
        </mxCell>
        <mxCell id="l2NazpN1zg4X8K2ymPKM-33" value="&lt;b&gt;&lt;font color=&quot;#ffffff&quot;&gt;&amp;gt;&lt;/font&gt;&lt;/b&gt;" style="text;html=1;align=center;verticalAlign=middle;whiteSpace=wrap;rounded=0;" parent="l2NazpN1zg4X8K2ymPKM-66" vertex="1">
          <mxGeometry x="77" y="4.5" width="60" height="30" as="geometry" />
        </mxCell>
        <mxCell id="l2NazpN1zg4X8K2ymPKM-34" value="" style="strokeWidth=1;shadow=0;dashed=0;align=center;html=1;shape=mxgraph.mockup.containers.browserWindow;rSize=0;strokeColor=#666666;strokeColor2=#008cff;strokeColor3=#c4c4c4;mainText=,;recursiveResize=0;" parent="1" vertex="1">
          <mxGeometry x="1210" y="40" width="1080" height="920" as="geometry" />
        </mxCell>
        <mxCell id="l2NazpN1zg4X8K2ymPKM-35" value="Generate your CV!" style="strokeWidth=1;shadow=0;dashed=0;align=center;html=1;shape=mxgraph.mockup.containers.anchor;fontSize=17;fontColor=#666666;align=left;whiteSpace=wrap;" parent="l2NazpN1zg4X8K2ymPKM-34" vertex="1">
          <mxGeometry x="60" y="12" width="190" height="26" as="geometry" />
        </mxCell>
        <mxCell id="l2NazpN1zg4X8K2ymPKM-36" value="https://www.draw.io" style="strokeWidth=1;shadow=0;dashed=0;align=center;html=1;shape=mxgraph.mockup.containers.anchor;rSize=0;fontSize=17;fontColor=#666666;align=left;" parent="l2NazpN1zg4X8K2ymPKM-34" vertex="1">
          <mxGeometry x="130" y="60" width="250" height="26" as="geometry" />
        </mxCell>
        <mxCell id="l2NazpN1zg4X8K2ymPKM-37" value="" style="html=1;shadow=0;dashed=0;fillColor=#F8F9FA;strokeColor=none;fontSize=16;fontColor=#181819;align=left;spacing=2;spacingLeft=55;" parent="l2NazpN1zg4X8K2ymPKM-34" vertex="1">
          <mxGeometry y="110" width="1080" height="60" as="geometry" />
        </mxCell>
        <mxCell id="l2NazpN1zg4X8K2ymPKM-38" value="" style="shape=image;html=1;verticalAlign=top;verticalLabelPosition=bottom;labelBackgroundColor=#ffffff;imageAspect=0;aspect=fixed;image=https://cdn0.iconfinder.com/data/icons/phosphor-fill-vol-4/256/placeholder-fill-128.png" parent="l2NazpN1zg4X8K2ymPKM-34" vertex="1">
          <mxGeometry x="40" y="125" width="34" height="34" as="geometry" />
        </mxCell>
        <mxCell id="l2NazpN1zg4X8K2ymPKM-39" value="&lt;b style=&quot;font-size: 16px;&quot;&gt;CV Generator&lt;/b&gt;" style="text;html=1;align=left;verticalAlign=middle;whiteSpace=wrap;rounded=0;fontSize=16;" parent="l2NazpN1zg4X8K2ymPKM-34" vertex="1">
          <mxGeometry x="85" y="127" width="140" height="30" as="geometry" />
        </mxCell>
        <mxCell id="l2NazpN1zg4X8K2ymPKM-40" value="&lt;b style=&quot;&quot;&gt;&lt;font style=&quot;font-size: 20px;&quot;&gt;Education and Qualifications&lt;/font&gt;&lt;/b&gt;" style="text;html=1;align=center;verticalAlign=middle;whiteSpace=wrap;rounded=0;fontSize=28;" parent="l2NazpN1zg4X8K2ymPKM-34" vertex="1">
          <mxGeometry x="382.5" y="210" width="285" height="30" as="geometry" />
        </mxCell>
        <mxCell id="l2NazpN1zg4X8K2ymPKM-42" value="" style="rounded=1;whiteSpace=wrap;html=1;arcSize=4;textShadow=0;shadow=1;strokeColor=none;" parent="l2NazpN1zg4X8K2ymPKM-34" vertex="1">
          <mxGeometry x="250" y="280" width="550" height="520" as="geometry" />
        </mxCell>
        <mxCell id="l2NazpN1zg4X8K2ymPKM-43" value="" style="group" parent="l2NazpN1zg4X8K2ymPKM-34" vertex="1" connectable="0">
          <mxGeometry x="292.5" y="310" width="210" height="58" as="geometry" />
        </mxCell>
        <mxCell id="l2NazpN1zg4X8K2ymPKM-44" value="Degree" style="fillColor=none;strokeColor=none;html=1;fontSize=11;fontStyle=0;align=left;fontColor=#596780;fontStyle=1;fontSize=11" parent="l2NazpN1zg4X8K2ymPKM-43" vertex="1">
          <mxGeometry width="96.83333333333334" height="20" as="geometry" />
        </mxCell>
        <mxCell id="l2NazpN1zg4X8K2ymPKM-45" value="&lt;font color=&quot;#a1a1a1&quot;&gt;Bachelor of Commerce&lt;/font&gt;" style="rounded=1;arcSize=9;fillColor=#F7F8F9;align=left;spacingLeft=5;strokeColor=#DEE1E6;html=1;strokeWidth=2;fontSize=12" parent="l2NazpN1zg4X8K2ymPKM-43" vertex="1">
          <mxGeometry y="25" width="210" height="33" as="geometry" />
        </mxCell>
        <mxCell id="l2NazpN1zg4X8K2ymPKM-52" value="" style="group" parent="l2NazpN1zg4X8K2ymPKM-34" vertex="1" connectable="0">
          <mxGeometry x="291" y="390" width="450" height="58" as="geometry" />
        </mxCell>
        <mxCell id="l2NazpN1zg4X8K2ymPKM-53" value="School*" style="fillColor=none;strokeColor=none;html=1;fontSize=11;fontStyle=0;align=left;fontColor=#596780;fontStyle=1;fontSize=11" parent="l2NazpN1zg4X8K2ymPKM-52" vertex="1">
          <mxGeometry width="210" height="20" as="geometry" />
        </mxCell>
        <mxCell id="l2NazpN1zg4X8K2ymPKM-54" value="New York University" style="rounded=1;arcSize=9;fillColor=#F7F8F9;align=left;spacingLeft=5;strokeColor=#DEE1E6;html=1;strokeWidth=2;fontSize=12;fontColor=#A1A1A1;" parent="l2NazpN1zg4X8K2ymPKM-52" vertex="1">
          <mxGeometry y="25" width="450" height="33" as="geometry" />
        </mxCell>
        <mxCell id="l2NazpN1zg4X8K2ymPKM-61" value="" style="group" parent="l2NazpN1zg4X8K2ymPKM-34" vertex="1" connectable="0">
          <mxGeometry x="531" y="310" width="210" height="58" as="geometry" />
        </mxCell>
        <mxCell id="l2NazpN1zg4X8K2ymPKM-62" value="Major" style="fillColor=none;strokeColor=none;html=1;fontSize=11;fontStyle=0;align=left;fontColor=#596780;fontStyle=1;fontSize=11" parent="l2NazpN1zg4X8K2ymPKM-61" vertex="1">
          <mxGeometry width="96.83333333333334" height="20" as="geometry" />
        </mxCell>
        <mxCell id="l2NazpN1zg4X8K2ymPKM-63" value="&lt;font color=&quot;#a1a1a1&quot;&gt;Finance/Accounting&lt;/font&gt;" style="rounded=1;arcSize=9;fillColor=#F7F8F9;align=left;spacingLeft=5;strokeColor=#DEE1E6;html=1;strokeWidth=2;fontSize=12" parent="l2NazpN1zg4X8K2ymPKM-61" vertex="1">
          <mxGeometry y="25" width="210" height="33" as="geometry" />
        </mxCell>
        <mxCell id="qSg4JuXbs9vaGkgjDfCH-13" value="" style="group" parent="l2NazpN1zg4X8K2ymPKM-34" vertex="1" connectable="0">
          <mxGeometry x="291" y="466" width="199" height="58" as="geometry" />
        </mxCell>
        <mxCell id="qSg4JuXbs9vaGkgjDfCH-2" value="Start date" style="fillColor=none;strokeColor=none;html=1;fontSize=11;fontStyle=0;align=left;fontColor=#596780;fontStyle=1;fontSize=11" parent="qSg4JuXbs9vaGkgjDfCH-13" vertex="1">
          <mxGeometry width="96.83333333333334" height="20" as="geometry" />
        </mxCell>
        <mxCell id="qSg4JuXbs9vaGkgjDfCH-8" value="" style="group" parent="qSg4JuXbs9vaGkgjDfCH-13" vertex="1" connectable="0">
          <mxGeometry y="25" width="90" height="33" as="geometry" />
        </mxCell>
        <mxCell id="qSg4JuXbs9vaGkgjDfCH-3" value="&lt;font color=&quot;#a1a1a1&quot;&gt;March&lt;/font&gt;" style="rounded=1;arcSize=9;fillColor=#F7F8F9;align=left;spacingLeft=5;strokeColor=#DEE1E6;html=1;strokeWidth=2;fontSize=12" parent="qSg4JuXbs9vaGkgjDfCH-8" vertex="1">
          <mxGeometry width="90" height="33" as="geometry" />
        </mxCell>
        <mxCell id="qSg4JuXbs9vaGkgjDfCH-7" value="" style="verticalLabelPosition=bottom;verticalAlign=top;html=1;shape=mxgraph.basic.acute_triangle;dx=0.5;rotation=-180;fillColor=#000000;" parent="qSg4JuXbs9vaGkgjDfCH-8" vertex="1">
          <mxGeometry x="79" y="17.120000000000005" width="3.29" height="2.77" as="geometry" />
        </mxCell>
        <mxCell id="qSg4JuXbs9vaGkgjDfCH-9" value="" style="group" parent="qSg4JuXbs9vaGkgjDfCH-13" vertex="1" connectable="0">
          <mxGeometry x="109" y="25" width="90" height="33" as="geometry" />
        </mxCell>
        <mxCell id="qSg4JuXbs9vaGkgjDfCH-10" value="&lt;font color=&quot;#a1a1a1&quot;&gt;2020&lt;/font&gt;" style="rounded=1;arcSize=9;fillColor=#F7F8F9;align=left;spacingLeft=5;strokeColor=#DEE1E6;html=1;strokeWidth=2;fontSize=12" parent="qSg4JuXbs9vaGkgjDfCH-9" vertex="1">
          <mxGeometry width="90" height="33" as="geometry" />
        </mxCell>
        <mxCell id="qSg4JuXbs9vaGkgjDfCH-11" value="" style="verticalLabelPosition=bottom;verticalAlign=top;html=1;shape=mxgraph.basic.acute_triangle;dx=0.5;rotation=-180;fillColor=#000000;" parent="qSg4JuXbs9vaGkgjDfCH-9" vertex="1">
          <mxGeometry x="79" y="17.120000000000005" width="3.29" height="2.77" as="geometry" />
        </mxCell>
        <mxCell id="qSg4JuXbs9vaGkgjDfCH-14" value="" style="group" parent="l2NazpN1zg4X8K2ymPKM-34" vertex="1" connectable="0">
          <mxGeometry x="531" y="466" width="199" height="58" as="geometry" />
        </mxCell>
        <mxCell id="qSg4JuXbs9vaGkgjDfCH-15" value="End date" style="fillColor=none;strokeColor=none;html=1;fontSize=11;fontStyle=0;align=left;fontColor=#596780;fontStyle=1;fontSize=11" parent="qSg4JuXbs9vaGkgjDfCH-14" vertex="1">
          <mxGeometry width="96.83333333333334" height="20" as="geometry" />
        </mxCell>
        <mxCell id="qSg4JuXbs9vaGkgjDfCH-16" value="" style="group" parent="qSg4JuXbs9vaGkgjDfCH-14" vertex="1" connectable="0">
          <mxGeometry y="25" width="90" height="33" as="geometry" />
        </mxCell>
        <mxCell id="qSg4JuXbs9vaGkgjDfCH-17" value="&lt;font color=&quot;#a1a1a1&quot;&gt;September&lt;/font&gt;" style="rounded=1;arcSize=9;fillColor=#F7F8F9;align=left;spacingLeft=5;strokeColor=#DEE1E6;html=1;strokeWidth=2;fontSize=12" parent="qSg4JuXbs9vaGkgjDfCH-16" vertex="1">
          <mxGeometry width="90" height="33" as="geometry" />
        </mxCell>
        <mxCell id="qSg4JuXbs9vaGkgjDfCH-18" value="" style="verticalLabelPosition=bottom;verticalAlign=top;html=1;shape=mxgraph.basic.acute_triangle;dx=0.5;rotation=-180;fillColor=#000000;" parent="qSg4JuXbs9vaGkgjDfCH-16" vertex="1">
          <mxGeometry x="79" y="17.120000000000005" width="3.29" height="2.77" as="geometry" />
        </mxCell>
        <mxCell id="qSg4JuXbs9vaGkgjDfCH-19" value="" style="group" parent="qSg4JuXbs9vaGkgjDfCH-14" vertex="1" connectable="0">
          <mxGeometry x="109" y="25" width="90" height="33" as="geometry" />
        </mxCell>
        <mxCell id="qSg4JuXbs9vaGkgjDfCH-20" value="&lt;font color=&quot;#a1a1a1&quot;&gt;2024&lt;/font&gt;" style="rounded=1;arcSize=9;fillColor=#F7F8F9;align=left;spacingLeft=5;strokeColor=#DEE1E6;html=1;strokeWidth=2;fontSize=12" parent="qSg4JuXbs9vaGkgjDfCH-19" vertex="1">
          <mxGeometry width="90" height="33" as="geometry" />
        </mxCell>
        <mxCell id="qSg4JuXbs9vaGkgjDfCH-21" value="" style="verticalLabelPosition=bottom;verticalAlign=top;html=1;shape=mxgraph.basic.acute_triangle;dx=0.5;rotation=-180;fillColor=#000000;" parent="qSg4JuXbs9vaGkgjDfCH-19" vertex="1">
          <mxGeometry x="79" y="17.120000000000005" width="3.29" height="2.77" as="geometry" />
        </mxCell>
        <mxCell id="qSg4JuXbs9vaGkgjDfCH-22" value="Validate end date is after start date" style="text;html=1;align=center;verticalAlign=middle;whiteSpace=wrap;rounded=0;fontFamily=Courier New;fillColor=#fff2cc;strokeColor=#d6b656;" parent="l2NazpN1zg4X8K2ymPKM-34" vertex="1">
          <mxGeometry x="780" y="480" width="120" height="56" as="geometry" />
        </mxCell>
        <mxCell id="qSg4JuXbs9vaGkgjDfCH-23" value="" style="group" parent="l2NazpN1zg4X8K2ymPKM-34" vertex="1" connectable="0">
          <mxGeometry x="291" y="540" width="450" height="90" as="geometry" />
        </mxCell>
        <mxCell id="qSg4JuXbs9vaGkgjDfCH-24" value="Description" style="fillColor=none;strokeColor=none;html=1;fontSize=11;fontStyle=0;align=left;fontColor=#596780;fontStyle=1;fontSize=11" parent="qSg4JuXbs9vaGkgjDfCH-23" vertex="1">
          <mxGeometry width="210" height="15" as="geometry" />
        </mxCell>
        <mxCell id="qSg4JuXbs9vaGkgjDfCH-25" value="" style="rounded=1;arcSize=9;fillColor=#F7F8F9;align=left;spacingLeft=5;strokeColor=#DEE1E6;html=1;strokeWidth=2;fontSize=12;fontColor=#A1A1A1;" parent="qSg4JuXbs9vaGkgjDfCH-23" vertex="1">
          <mxGeometry y="21.75" width="450" height="71.25" as="geometry" />
        </mxCell>
        <mxCell id="qSg4JuXbs9vaGkgjDfCH-36" value="&lt;font style=&quot;font-size: 10px;&quot;&gt;Delete&lt;/font&gt;" style="html=1;shadow=0;dashed=0;shape=mxgraph.bootstrap.rrect;rSize=5;strokeWidth=1;whiteSpace=wrap;align=center;verticalAlign=middle;spacingLeft=0;fontStyle=0;fontSize=10;spacing=5;strokeColor=#A1A1A1;" parent="l2NazpN1zg4X8K2ymPKM-34" vertex="1">
          <mxGeometry x="620" y="643" width="57" height="30" as="geometry" />
        </mxCell>
        <mxCell id="qSg4JuXbs9vaGkgjDfCH-37" value="&lt;font style=&quot;font-size: 10px;&quot;&gt;Save&lt;/font&gt;" style="html=1;shadow=0;dashed=0;shape=mxgraph.bootstrap.rrect;rSize=5;strokeWidth=1;whiteSpace=wrap;align=center;verticalAlign=middle;spacingLeft=0;fontStyle=0;fontSize=10;spacing=5;strokeColor=#A1A1A1;" parent="l2NazpN1zg4X8K2ymPKM-34" vertex="1">
          <mxGeometry x="684" y="643" width="57" height="30" as="geometry" />
        </mxCell>
        <mxCell id="qSg4JuXbs9vaGkgjDfCH-41" value="" style="group" parent="l2NazpN1zg4X8K2ymPKM-34" vertex="1" connectable="0">
          <mxGeometry x="291" y="710" width="450" height="40" as="geometry" />
        </mxCell>
        <mxCell id="qSg4JuXbs9vaGkgjDfCH-39" value="Add another education or qualification" style="html=1;shadow=0;dashed=0;shape=mxgraph.bootstrap.rrect;rSize=5;strokeColor=none;strokeWidth=1;fillColor=#E8E8E8;fontColor=#000000;whiteSpace=wrap;align=center;verticalAlign=middle;spacingLeft=0;fontStyle=0;fontSize=10;spacing=5;" parent="qSg4JuXbs9vaGkgjDfCH-41" vertex="1">
          <mxGeometry width="450" height="40" as="geometry" />
        </mxCell>
        <mxCell id="qSg4JuXbs9vaGkgjDfCH-40" value="" style="html=1;verticalLabelPosition=bottom;align=center;labelBackgroundColor=#ffffff;verticalAlign=top;strokeWidth=1;strokeColor=#000000;shadow=0;dashed=0;shape=mxgraph.ios7.icons.add;fillColor=none;" parent="qSg4JuXbs9vaGkgjDfCH-41" vertex="1">
          <mxGeometry x="119" y="15" width="10" height="10" as="geometry" />
        </mxCell>
        <mxCell id="qSg4JuXbs9vaGkgjDfCH-139" style="edgeStyle=orthogonalEdgeStyle;shape=connector;curved=1;rounded=0;orthogonalLoop=1;jettySize=auto;html=1;strokeColor=default;align=center;verticalAlign=middle;fontFamily=Helvetica;fontSize=11;fontColor=default;labelBackgroundColor=default;endArrow=classic;" parent="l2NazpN1zg4X8K2ymPKM-34" source="qSg4JuXbs9vaGkgjDfCH-138" target="qSg4JuXbs9vaGkgjDfCH-17" edge="1">
          <mxGeometry relative="1" as="geometry" />
        </mxCell>
        <mxCell id="qSg4JuXbs9vaGkgjDfCH-138" value="One of the options is &quot;Present&quot;, and the year box disappears" style="text;html=1;align=center;verticalAlign=middle;whiteSpace=wrap;rounded=0;fontFamily=Courier New;fillColor=#fff2cc;strokeColor=#d6b656;" parent="l2NazpN1zg4X8K2ymPKM-34" vertex="1">
          <mxGeometry x="780" y="545" width="120" height="80" as="geometry" />
        </mxCell>
        <mxCell id="qSg4JuXbs9vaGkgjDfCH-332" value="" style="group" parent="l2NazpN1zg4X8K2ymPKM-34" vertex="1" connectable="0">
          <mxGeometry x="461" y="821" width="137" height="82" as="geometry" />
        </mxCell>
        <mxCell id="l2NazpN1zg4X8K2ymPKM-57" value="" style="group" parent="qSg4JuXbs9vaGkgjDfCH-332" vertex="1" connectable="0">
          <mxGeometry width="137" height="40" as="geometry" />
        </mxCell>
        <mxCell id="l2NazpN1zg4X8K2ymPKM-55" value="Next step" style="rounded=1;fillColor=#0057D8;strokeColor=none;html=1;whiteSpace=wrap;fontColor=#ffffff;align=center;verticalAlign=middle;fontStyle=0;fontSize=12;sketch=0;" parent="l2NazpN1zg4X8K2ymPKM-57" vertex="1">
          <mxGeometry width="128" height="40" as="geometry" />
        </mxCell>
        <mxCell id="l2NazpN1zg4X8K2ymPKM-56" value="&lt;b&gt;&lt;font color=&quot;#ffffff&quot;&gt;&amp;gt;&lt;/font&gt;&lt;/b&gt;" style="text;html=1;align=center;verticalAlign=middle;whiteSpace=wrap;rounded=0;" parent="l2NazpN1zg4X8K2ymPKM-57" vertex="1">
          <mxGeometry x="77" y="4.5" width="60" height="30" as="geometry" />
        </mxCell>
        <mxCell id="qSg4JuXbs9vaGkgjDfCH-331" value="&lt;font color=&quot;#a1a1a1&quot;&gt;&amp;lt;&amp;nbsp; Previous step&lt;/font&gt;" style="fillColor=none;strokeColor=none;html=1;fontColor=#0057D8;align=center;verticalAlign=middle;fontStyle=0;fontSize=12;fontFamily=Helvetica;labelBackgroundColor=default;" parent="qSg4JuXbs9vaGkgjDfCH-332" vertex="1">
          <mxGeometry x="21" y="49" width="86" height="33" as="geometry" />
        </mxCell>
        <mxCell id="l2NazpN1zg4X8K2ymPKM-67" style="edgeStyle=orthogonalEdgeStyle;rounded=1;orthogonalLoop=1;jettySize=auto;html=1;curved=0;flowAnimation=1;" parent="1" source="l2NazpN1zg4X8K2ymPKM-29" target="l2NazpN1zg4X8K2ymPKM-34" edge="1">
          <mxGeometry relative="1" as="geometry" />
        </mxCell>
        <mxCell id="qSg4JuXbs9vaGkgjDfCH-89" value="" style="strokeWidth=1;shadow=0;dashed=0;align=center;html=1;shape=mxgraph.mockup.containers.browserWindow;rSize=0;strokeColor=#666666;strokeColor2=#008cff;strokeColor3=#c4c4c4;mainText=,;recursiveResize=0;" parent="1" vertex="1">
          <mxGeometry x="3640" y="40" width="1080" height="950" as="geometry" />
        </mxCell>
        <mxCell id="qSg4JuXbs9vaGkgjDfCH-90" value="Generate your CV!" style="strokeWidth=1;shadow=0;dashed=0;align=center;html=1;shape=mxgraph.mockup.containers.anchor;fontSize=17;fontColor=#666666;align=left;whiteSpace=wrap;" parent="qSg4JuXbs9vaGkgjDfCH-89" vertex="1">
          <mxGeometry x="60" y="12" width="190" height="26" as="geometry" />
        </mxCell>
        <mxCell id="qSg4JuXbs9vaGkgjDfCH-91" value="https://www.draw.io" style="strokeWidth=1;shadow=0;dashed=0;align=center;html=1;shape=mxgraph.mockup.containers.anchor;rSize=0;fontSize=17;fontColor=#666666;align=left;" parent="qSg4JuXbs9vaGkgjDfCH-89" vertex="1">
          <mxGeometry x="130" y="60" width="250" height="26" as="geometry" />
        </mxCell>
        <mxCell id="qSg4JuXbs9vaGkgjDfCH-92" value="" style="html=1;shadow=0;dashed=0;fillColor=#F8F9FA;strokeColor=none;fontSize=16;fontColor=#181819;align=left;spacing=2;spacingLeft=55;" parent="qSg4JuXbs9vaGkgjDfCH-89" vertex="1">
          <mxGeometry y="110" width="1080" height="60" as="geometry" />
        </mxCell>
        <mxCell id="qSg4JuXbs9vaGkgjDfCH-93" value="" style="shape=image;html=1;verticalAlign=top;verticalLabelPosition=bottom;labelBackgroundColor=#ffffff;imageAspect=0;aspect=fixed;image=https://cdn0.iconfinder.com/data/icons/phosphor-fill-vol-4/256/placeholder-fill-128.png" parent="qSg4JuXbs9vaGkgjDfCH-89" vertex="1">
          <mxGeometry x="40" y="125" width="34" height="34" as="geometry" />
        </mxCell>
        <mxCell id="qSg4JuXbs9vaGkgjDfCH-94" value="&lt;b style=&quot;font-size: 16px;&quot;&gt;CV Generator&lt;/b&gt;" style="text;html=1;align=left;verticalAlign=middle;whiteSpace=wrap;rounded=0;fontSize=16;" parent="qSg4JuXbs9vaGkgjDfCH-89" vertex="1">
          <mxGeometry x="85" y="127" width="140" height="30" as="geometry" />
        </mxCell>
        <mxCell id="qSg4JuXbs9vaGkgjDfCH-95" value="&lt;b style=&quot;&quot;&gt;&lt;font style=&quot;font-size: 20px;&quot;&gt;Professional Experience&lt;/font&gt;&lt;/b&gt;" style="text;html=1;align=center;verticalAlign=middle;whiteSpace=wrap;rounded=0;fontSize=28;" parent="qSg4JuXbs9vaGkgjDfCH-89" vertex="1">
          <mxGeometry x="382.5" y="210" width="285" height="30" as="geometry" />
        </mxCell>
        <mxCell id="qSg4JuXbs9vaGkgjDfCH-99" value="" style="rounded=1;whiteSpace=wrap;html=1;arcSize=4;textShadow=0;shadow=1;strokeColor=none;" parent="qSg4JuXbs9vaGkgjDfCH-89" vertex="1">
          <mxGeometry x="250" y="280" width="550" height="510" as="geometry" />
        </mxCell>
        <mxCell id="qSg4JuXbs9vaGkgjDfCH-100" value="" style="group" parent="qSg4JuXbs9vaGkgjDfCH-89" vertex="1" connectable="0">
          <mxGeometry x="292.5" y="310" width="447.5" height="58" as="geometry" />
        </mxCell>
        <mxCell id="qSg4JuXbs9vaGkgjDfCH-101" value="Job Title" style="fillColor=none;strokeColor=none;html=1;fontSize=11;fontStyle=0;align=left;fontColor=#596780;fontStyle=1;fontSize=11" parent="qSg4JuXbs9vaGkgjDfCH-100" vertex="1">
          <mxGeometry width="206.34722222222223" height="20" as="geometry" />
        </mxCell>
        <mxCell id="qSg4JuXbs9vaGkgjDfCH-102" value="&lt;font color=&quot;#a1a1a1&quot;&gt;Business Analyst&lt;/font&gt;" style="rounded=1;arcSize=9;fillColor=#F7F8F9;align=left;spacingLeft=5;strokeColor=#DEE1E6;html=1;strokeWidth=2;fontSize=12" parent="qSg4JuXbs9vaGkgjDfCH-100" vertex="1">
          <mxGeometry y="25" width="447.5" height="33" as="geometry" />
        </mxCell>
        <mxCell id="qSg4JuXbs9vaGkgjDfCH-103" value="" style="group" parent="qSg4JuXbs9vaGkgjDfCH-89" vertex="1" connectable="0">
          <mxGeometry x="291" y="390" width="450" height="58" as="geometry" />
        </mxCell>
        <mxCell id="qSg4JuXbs9vaGkgjDfCH-104" value="Employer" style="fillColor=none;strokeColor=none;html=1;fontSize=11;fontStyle=0;align=left;fontColor=#596780;fontStyle=1;fontSize=11" parent="qSg4JuXbs9vaGkgjDfCH-103" vertex="1">
          <mxGeometry width="210" height="20" as="geometry" />
        </mxCell>
        <mxCell id="qSg4JuXbs9vaGkgjDfCH-105" value="Commonwealth Bank of Australia" style="rounded=1;arcSize=9;fillColor=#F7F8F9;align=left;spacingLeft=5;strokeColor=#DEE1E6;html=1;strokeWidth=2;fontSize=12;fontColor=#A1A1A1;" parent="qSg4JuXbs9vaGkgjDfCH-103" vertex="1">
          <mxGeometry y="25" width="450" height="33" as="geometry" />
        </mxCell>
        <mxCell id="qSg4JuXbs9vaGkgjDfCH-109" value="" style="group" parent="qSg4JuXbs9vaGkgjDfCH-89" vertex="1" connectable="0">
          <mxGeometry x="291" y="466" width="199" height="58" as="geometry" />
        </mxCell>
        <mxCell id="qSg4JuXbs9vaGkgjDfCH-110" value="Start date" style="fillColor=none;strokeColor=none;html=1;fontSize=11;fontStyle=0;align=left;fontColor=#596780;fontStyle=1;fontSize=11" parent="qSg4JuXbs9vaGkgjDfCH-109" vertex="1">
          <mxGeometry width="96.83333333333334" height="20" as="geometry" />
        </mxCell>
        <mxCell id="qSg4JuXbs9vaGkgjDfCH-111" value="" style="group" parent="qSg4JuXbs9vaGkgjDfCH-109" vertex="1" connectable="0">
          <mxGeometry y="25" width="90" height="33" as="geometry" />
        </mxCell>
        <mxCell id="qSg4JuXbs9vaGkgjDfCH-112" value="&lt;font color=&quot;#a1a1a1&quot;&gt;March&lt;/font&gt;" style="rounded=1;arcSize=9;fillColor=#F7F8F9;align=left;spacingLeft=5;strokeColor=#DEE1E6;html=1;strokeWidth=2;fontSize=12" parent="qSg4JuXbs9vaGkgjDfCH-111" vertex="1">
          <mxGeometry width="90" height="33" as="geometry" />
        </mxCell>
        <mxCell id="qSg4JuXbs9vaGkgjDfCH-113" value="" style="verticalLabelPosition=bottom;verticalAlign=top;html=1;shape=mxgraph.basic.acute_triangle;dx=0.5;rotation=-180;fillColor=#000000;" parent="qSg4JuXbs9vaGkgjDfCH-111" vertex="1">
          <mxGeometry x="79" y="17.120000000000005" width="3.29" height="2.77" as="geometry" />
        </mxCell>
        <mxCell id="qSg4JuXbs9vaGkgjDfCH-114" value="" style="group" parent="qSg4JuXbs9vaGkgjDfCH-109" vertex="1" connectable="0">
          <mxGeometry x="109" y="25" width="90" height="33" as="geometry" />
        </mxCell>
        <mxCell id="qSg4JuXbs9vaGkgjDfCH-115" value="&lt;font color=&quot;#a1a1a1&quot;&gt;2020&lt;/font&gt;" style="rounded=1;arcSize=9;fillColor=#F7F8F9;align=left;spacingLeft=5;strokeColor=#DEE1E6;html=1;strokeWidth=2;fontSize=12" parent="qSg4JuXbs9vaGkgjDfCH-114" vertex="1">
          <mxGeometry width="90" height="33" as="geometry" />
        </mxCell>
        <mxCell id="qSg4JuXbs9vaGkgjDfCH-116" value="" style="verticalLabelPosition=bottom;verticalAlign=top;html=1;shape=mxgraph.basic.acute_triangle;dx=0.5;rotation=-180;fillColor=#000000;" parent="qSg4JuXbs9vaGkgjDfCH-114" vertex="1">
          <mxGeometry x="79" y="17.120000000000005" width="3.29" height="2.77" as="geometry" />
        </mxCell>
        <mxCell id="qSg4JuXbs9vaGkgjDfCH-117" value="" style="group" parent="qSg4JuXbs9vaGkgjDfCH-89" vertex="1" connectable="0">
          <mxGeometry x="531" y="466" width="199" height="58" as="geometry" />
        </mxCell>
        <mxCell id="qSg4JuXbs9vaGkgjDfCH-118" value="End date" style="fillColor=none;strokeColor=none;html=1;fontSize=11;fontStyle=0;align=left;fontColor=#596780;fontStyle=1;fontSize=11" parent="qSg4JuXbs9vaGkgjDfCH-117" vertex="1">
          <mxGeometry width="96.83333333333334" height="20" as="geometry" />
        </mxCell>
        <mxCell id="qSg4JuXbs9vaGkgjDfCH-119" value="" style="group" parent="qSg4JuXbs9vaGkgjDfCH-117" vertex="1" connectable="0">
          <mxGeometry y="25" width="90" height="33" as="geometry" />
        </mxCell>
        <mxCell id="qSg4JuXbs9vaGkgjDfCH-120" value="&lt;font color=&quot;#a1a1a1&quot;&gt;September&lt;/font&gt;" style="rounded=1;arcSize=9;fillColor=#F7F8F9;align=left;spacingLeft=5;strokeColor=#DEE1E6;html=1;strokeWidth=2;fontSize=12" parent="qSg4JuXbs9vaGkgjDfCH-119" vertex="1">
          <mxGeometry width="90" height="33" as="geometry" />
        </mxCell>
        <mxCell id="qSg4JuXbs9vaGkgjDfCH-121" value="" style="verticalLabelPosition=bottom;verticalAlign=top;html=1;shape=mxgraph.basic.acute_triangle;dx=0.5;rotation=-180;fillColor=#000000;" parent="qSg4JuXbs9vaGkgjDfCH-119" vertex="1">
          <mxGeometry x="79" y="17.120000000000005" width="3.29" height="2.77" as="geometry" />
        </mxCell>
        <mxCell id="qSg4JuXbs9vaGkgjDfCH-122" value="" style="group" parent="qSg4JuXbs9vaGkgjDfCH-117" vertex="1" connectable="0">
          <mxGeometry x="109" y="25" width="90" height="33" as="geometry" />
        </mxCell>
        <mxCell id="qSg4JuXbs9vaGkgjDfCH-123" value="&lt;font color=&quot;#a1a1a1&quot;&gt;2024&lt;/font&gt;" style="rounded=1;arcSize=9;fillColor=#F7F8F9;align=left;spacingLeft=5;strokeColor=#DEE1E6;html=1;strokeWidth=2;fontSize=12" parent="qSg4JuXbs9vaGkgjDfCH-122" vertex="1">
          <mxGeometry width="90" height="33" as="geometry" />
        </mxCell>
        <mxCell id="qSg4JuXbs9vaGkgjDfCH-124" value="" style="verticalLabelPosition=bottom;verticalAlign=top;html=1;shape=mxgraph.basic.acute_triangle;dx=0.5;rotation=-180;fillColor=#000000;" parent="qSg4JuXbs9vaGkgjDfCH-122" vertex="1">
          <mxGeometry x="79" y="17.120000000000005" width="3.29" height="2.77" as="geometry" />
        </mxCell>
        <mxCell id="qSg4JuXbs9vaGkgjDfCH-125" value="Validate end date is after start date" style="text;html=1;align=center;verticalAlign=middle;whiteSpace=wrap;rounded=0;fontFamily=Courier New;fillColor=#fff2cc;strokeColor=#d6b656;" parent="qSg4JuXbs9vaGkgjDfCH-89" vertex="1">
          <mxGeometry x="780" y="480" width="120" height="56" as="geometry" />
        </mxCell>
        <mxCell id="qSg4JuXbs9vaGkgjDfCH-126" value="" style="group" parent="qSg4JuXbs9vaGkgjDfCH-89" vertex="1" connectable="0">
          <mxGeometry x="291" y="540" width="450" height="90" as="geometry" />
        </mxCell>
        <mxCell id="qSg4JuXbs9vaGkgjDfCH-127" value="Description (responsibilities, achievements etc.)" style="fillColor=none;strokeColor=none;html=1;fontSize=11;fontStyle=0;align=left;fontColor=#596780;fontStyle=1;fontSize=11" parent="qSg4JuXbs9vaGkgjDfCH-126" vertex="1">
          <mxGeometry width="210" height="15" as="geometry" />
        </mxCell>
        <mxCell id="qSg4JuXbs9vaGkgjDfCH-128" value="" style="rounded=1;arcSize=9;fillColor=#F7F8F9;align=left;spacingLeft=5;strokeColor=#DEE1E6;html=1;strokeWidth=2;fontSize=12;fontColor=#A1A1A1;" parent="qSg4JuXbs9vaGkgjDfCH-126" vertex="1">
          <mxGeometry y="21.75" width="450" height="71.25" as="geometry" />
        </mxCell>
        <mxCell id="qSg4JuXbs9vaGkgjDfCH-129" value="&lt;font style=&quot;font-size: 10px;&quot;&gt;Delete&lt;/font&gt;" style="html=1;shadow=0;dashed=0;shape=mxgraph.bootstrap.rrect;rSize=5;strokeWidth=1;whiteSpace=wrap;align=center;verticalAlign=middle;spacingLeft=0;fontStyle=0;fontSize=10;spacing=5;strokeColor=#A1A1A1;" parent="qSg4JuXbs9vaGkgjDfCH-89" vertex="1">
          <mxGeometry x="620" y="643" width="57" height="30" as="geometry" />
        </mxCell>
        <mxCell id="qSg4JuXbs9vaGkgjDfCH-130" value="&lt;font style=&quot;font-size: 10px;&quot;&gt;Save&lt;/font&gt;" style="html=1;shadow=0;dashed=0;shape=mxgraph.bootstrap.rrect;rSize=5;strokeWidth=1;whiteSpace=wrap;align=center;verticalAlign=middle;spacingLeft=0;fontStyle=0;fontSize=10;spacing=5;strokeColor=#A1A1A1;" parent="qSg4JuXbs9vaGkgjDfCH-89" vertex="1">
          <mxGeometry x="684" y="643" width="57" height="30" as="geometry" />
        </mxCell>
        <mxCell id="qSg4JuXbs9vaGkgjDfCH-131" value="" style="group" parent="qSg4JuXbs9vaGkgjDfCH-89" vertex="1" connectable="0">
          <mxGeometry x="291" y="694" width="450" height="40" as="geometry" />
        </mxCell>
        <mxCell id="qSg4JuXbs9vaGkgjDfCH-132" value="Add another professional experience" style="html=1;shadow=0;dashed=0;shape=mxgraph.bootstrap.rrect;rSize=5;strokeColor=none;strokeWidth=1;fillColor=#E8E8E8;fontColor=#000000;whiteSpace=wrap;align=center;verticalAlign=middle;spacingLeft=0;fontStyle=0;fontSize=10;spacing=5;" parent="qSg4JuXbs9vaGkgjDfCH-131" vertex="1">
          <mxGeometry width="450" height="40" as="geometry" />
        </mxCell>
        <mxCell id="qSg4JuXbs9vaGkgjDfCH-133" value="" style="html=1;verticalLabelPosition=bottom;align=center;labelBackgroundColor=#ffffff;verticalAlign=top;strokeWidth=1;strokeColor=#000000;shadow=0;dashed=0;shape=mxgraph.ios7.icons.add;fillColor=none;" parent="qSg4JuXbs9vaGkgjDfCH-131" vertex="1">
          <mxGeometry x="119" y="15" width="10" height="10" as="geometry" />
        </mxCell>
        <mxCell id="qSg4JuXbs9vaGkgjDfCH-137" style="edgeStyle=orthogonalEdgeStyle;shape=connector;curved=1;rounded=0;orthogonalLoop=1;jettySize=auto;html=1;entryX=0.5;entryY=1;entryDx=0;entryDy=0;strokeColor=default;align=center;verticalAlign=middle;fontFamily=Helvetica;fontSize=11;fontColor=default;labelBackgroundColor=default;endArrow=classic;" parent="qSg4JuXbs9vaGkgjDfCH-89" source="qSg4JuXbs9vaGkgjDfCH-135" target="qSg4JuXbs9vaGkgjDfCH-120" edge="1">
          <mxGeometry relative="1" as="geometry" />
        </mxCell>
        <mxCell id="qSg4JuXbs9vaGkgjDfCH-135" value="One of the options is &quot;Present&quot;, and the year box disappears" style="text;html=1;align=center;verticalAlign=middle;whiteSpace=wrap;rounded=0;fontFamily=Courier New;fillColor=#fff2cc;strokeColor=#d6b656;" parent="qSg4JuXbs9vaGkgjDfCH-89" vertex="1">
          <mxGeometry x="780" y="550" width="120" height="80" as="geometry" />
        </mxCell>
        <mxCell id="qSg4JuXbs9vaGkgjDfCH-284" value="In future, enable users to put in dot points and numbered lists. Less important is bold, italics, and underline styling." style="text;html=1;align=center;verticalAlign=middle;whiteSpace=wrap;rounded=0;fontFamily=Courier New;fillColor=#fff2cc;strokeColor=#d6b656;" parent="qSg4JuXbs9vaGkgjDfCH-89" vertex="1">
          <mxGeometry x="49" y="580" width="201" height="103" as="geometry" />
        </mxCell>
        <mxCell id="qSg4JuXbs9vaGkgjDfCH-324" style="edgeStyle=orthogonalEdgeStyle;shape=connector;curved=1;rounded=0;orthogonalLoop=1;jettySize=auto;html=1;exitX=0;exitY=0.5;exitDx=0;exitDy=0;entryX=1;entryY=0.5;entryDx=0;entryDy=0;strokeColor=default;align=center;verticalAlign=middle;fontFamily=Helvetica;fontSize=11;fontColor=default;labelBackgroundColor=default;endArrow=classic;flowAnimation=0;" parent="qSg4JuXbs9vaGkgjDfCH-89" source="qSg4JuXbs9vaGkgjDfCH-323" target="qSg4JuXbs9vaGkgjDfCH-102" edge="1">
          <mxGeometry relative="1" as="geometry" />
        </mxCell>
        <mxCell id="qSg4JuXbs9vaGkgjDfCH-323" value="If nothing entered, user can proceed with no professional experience. However, if &quot;Job title&quot; is entered, Employer becomes compulsory" style="text;html=1;align=center;verticalAlign=middle;whiteSpace=wrap;rounded=0;fontFamily=Courier New;fillColor=#fff2cc;strokeColor=#d6b656;" parent="qSg4JuXbs9vaGkgjDfCH-89" vertex="1">
          <mxGeometry x="790" y="320" width="200" height="97" as="geometry" />
        </mxCell>
        <mxCell id="qSg4JuXbs9vaGkgjDfCH-134" style="edgeStyle=orthogonalEdgeStyle;rounded=1;orthogonalLoop=1;jettySize=auto;html=1;curved=0;flowAnimation=1;" parent="1" source="l2NazpN1zg4X8K2ymPKM-55" target="qSg4JuXbs9vaGkgjDfCH-89" edge="1">
          <mxGeometry relative="1" as="geometry" />
        </mxCell>
        <mxCell id="qSg4JuXbs9vaGkgjDfCH-142" value="" style="strokeWidth=1;shadow=0;dashed=0;align=center;html=1;shape=mxgraph.mockup.containers.browserWindow;rSize=0;strokeColor=#666666;strokeColor2=#008cff;strokeColor3=#c4c4c4;mainText=,;recursiveResize=0;" parent="1" vertex="1">
          <mxGeometry x="1810" y="1030" width="1080" height="690" as="geometry" />
        </mxCell>
        <mxCell id="qSg4JuXbs9vaGkgjDfCH-143" value="Generate your CV!" style="strokeWidth=1;shadow=0;dashed=0;align=center;html=1;shape=mxgraph.mockup.containers.anchor;fontSize=17;fontColor=#666666;align=left;whiteSpace=wrap;" parent="qSg4JuXbs9vaGkgjDfCH-142" vertex="1">
          <mxGeometry x="60" y="12" width="190" height="26" as="geometry" />
        </mxCell>
        <mxCell id="qSg4JuXbs9vaGkgjDfCH-144" value="https://www.draw.io" style="strokeWidth=1;shadow=0;dashed=0;align=center;html=1;shape=mxgraph.mockup.containers.anchor;rSize=0;fontSize=17;fontColor=#666666;align=left;" parent="qSg4JuXbs9vaGkgjDfCH-142" vertex="1">
          <mxGeometry x="130" y="60" width="250" height="26" as="geometry" />
        </mxCell>
        <mxCell id="qSg4JuXbs9vaGkgjDfCH-145" value="" style="html=1;shadow=0;dashed=0;fillColor=#F8F9FA;strokeColor=none;fontSize=16;fontColor=#181819;align=left;spacing=2;spacingLeft=55;" parent="qSg4JuXbs9vaGkgjDfCH-142" vertex="1">
          <mxGeometry y="110" width="1080" height="60" as="geometry" />
        </mxCell>
        <mxCell id="qSg4JuXbs9vaGkgjDfCH-146" value="" style="shape=image;html=1;verticalAlign=top;verticalLabelPosition=bottom;labelBackgroundColor=#ffffff;imageAspect=0;aspect=fixed;image=https://cdn0.iconfinder.com/data/icons/phosphor-fill-vol-4/256/placeholder-fill-128.png" parent="qSg4JuXbs9vaGkgjDfCH-142" vertex="1">
          <mxGeometry x="40" y="125" width="34" height="34" as="geometry" />
        </mxCell>
        <mxCell id="qSg4JuXbs9vaGkgjDfCH-147" value="&lt;b style=&quot;font-size: 16px;&quot;&gt;CV Generator&lt;/b&gt;" style="text;html=1;align=left;verticalAlign=middle;whiteSpace=wrap;rounded=0;fontSize=16;" parent="qSg4JuXbs9vaGkgjDfCH-142" vertex="1">
          <mxGeometry x="85" y="127" width="140" height="30" as="geometry" />
        </mxCell>
        <mxCell id="qSg4JuXbs9vaGkgjDfCH-148" value="&lt;b style=&quot;&quot;&gt;&lt;font style=&quot;font-size: 20px;&quot;&gt;Education and Qualifications&lt;/font&gt;&lt;/b&gt;" style="text;html=1;align=center;verticalAlign=middle;whiteSpace=wrap;rounded=0;fontSize=28;" parent="qSg4JuXbs9vaGkgjDfCH-142" vertex="1">
          <mxGeometry x="382.5" y="210" width="285" height="30" as="geometry" />
        </mxCell>
        <mxCell id="qSg4JuXbs9vaGkgjDfCH-152" value="" style="rounded=1;whiteSpace=wrap;html=1;arcSize=4;textShadow=0;shadow=1;strokeColor=none;" parent="qSg4JuXbs9vaGkgjDfCH-142" vertex="1">
          <mxGeometry x="250" y="280" width="550" height="260" as="geometry" />
        </mxCell>
        <mxCell id="qSg4JuXbs9vaGkgjDfCH-189" value="" style="line;strokeWidth=1;rotatable=0;dashed=0;labelPosition=right;align=left;verticalAlign=middle;spacingTop=0;spacingLeft=6;points=[];portConstraint=eastwest;fontFamily=Helvetica;fontSize=11;fontColor=default;labelBackgroundColor=default;fillColor=none;strokeColor=#E8E8E8;" parent="qSg4JuXbs9vaGkgjDfCH-142" vertex="1">
          <mxGeometry x="287" y="300" width="473" height="10" as="geometry" />
        </mxCell>
        <mxCell id="qSg4JuXbs9vaGkgjDfCH-191" value="" style="line;strokeWidth=1;rotatable=0;dashed=0;labelPosition=right;align=left;verticalAlign=middle;spacingTop=0;spacingLeft=6;points=[];portConstraint=eastwest;fontFamily=Helvetica;fontSize=11;fontColor=default;labelBackgroundColor=default;fillColor=none;strokeColor=#E8E8E8;" parent="qSg4JuXbs9vaGkgjDfCH-142" vertex="1">
          <mxGeometry x="287" y="360" width="473" height="10" as="geometry" />
        </mxCell>
        <mxCell id="qSg4JuXbs9vaGkgjDfCH-195" value="In future, enable reordering. Right now, sort by reverse chronological order (newest at top)" style="text;html=1;align=center;verticalAlign=middle;whiteSpace=wrap;rounded=0;fontFamily=Courier New;fillColor=#fff2cc;strokeColor=#d6b656;" parent="qSg4JuXbs9vaGkgjDfCH-142" vertex="1">
          <mxGeometry x="776" y="290" width="120" height="130" as="geometry" />
        </mxCell>
        <mxCell id="qSg4JuXbs9vaGkgjDfCH-201" value="" style="line;strokeWidth=1;rotatable=0;dashed=0;labelPosition=right;align=left;verticalAlign=middle;spacingTop=0;spacingLeft=6;points=[];portConstraint=eastwest;fontFamily=Helvetica;fontSize=11;fontColor=default;labelBackgroundColor=default;fillColor=none;strokeColor=#E8E8E8;" parent="qSg4JuXbs9vaGkgjDfCH-142" vertex="1">
          <mxGeometry x="287" y="420" width="473" height="10" as="geometry" />
        </mxCell>
        <mxCell id="qSg4JuXbs9vaGkgjDfCH-204" value="" style="group" parent="qSg4JuXbs9vaGkgjDfCH-142" vertex="1" connectable="0">
          <mxGeometry x="287" y="460" width="473" height="40" as="geometry" />
        </mxCell>
        <mxCell id="qSg4JuXbs9vaGkgjDfCH-205" value="Add another education or qualification" style="html=1;shadow=0;dashed=0;shape=mxgraph.bootstrap.rrect;rSize=5;strokeColor=none;strokeWidth=1;fillColor=#E8E8E8;fontColor=#000000;whiteSpace=wrap;align=center;verticalAlign=middle;spacingLeft=0;fontStyle=0;fontSize=10;spacing=5;" parent="qSg4JuXbs9vaGkgjDfCH-204" vertex="1">
          <mxGeometry width="473" height="40" as="geometry" />
        </mxCell>
        <mxCell id="qSg4JuXbs9vaGkgjDfCH-206" value="" style="html=1;verticalLabelPosition=bottom;align=center;labelBackgroundColor=#ffffff;verticalAlign=top;strokeWidth=1;strokeColor=#000000;shadow=0;dashed=0;shape=mxgraph.ios7.icons.add;fillColor=none;" parent="qSg4JuXbs9vaGkgjDfCH-204" vertex="1">
          <mxGeometry x="129.00458333333333" y="15" width="9.854166666666668" height="10" as="geometry" />
        </mxCell>
        <mxCell id="qSg4JuXbs9vaGkgjDfCH-207" value="" style="group" parent="qSg4JuXbs9vaGkgjDfCH-142" vertex="1" connectable="0">
          <mxGeometry x="287" y="320" width="451" height="30" as="geometry" />
        </mxCell>
        <mxCell id="qSg4JuXbs9vaGkgjDfCH-190" value="&lt;b&gt;ICAgile Product Owner&lt;/b&gt;&lt;div&gt;&lt;font color=&quot;#a1a1a1&quot; style=&quot;font-size: 8px;&quot;&gt;Sep 2024 - Present&lt;/font&gt;&lt;/div&gt;" style="text;html=1;align=left;verticalAlign=middle;whiteSpace=wrap;rounded=0;fontFamily=Helvetica;fontSize=11;fontColor=default;labelBackgroundColor=default;" parent="qSg4JuXbs9vaGkgjDfCH-207" vertex="1">
          <mxGeometry width="203" height="30" as="geometry" />
        </mxCell>
        <mxCell id="qSg4JuXbs9vaGkgjDfCH-193" value="" style="shape=image;html=1;verticalAlign=top;verticalLabelPosition=bottom;labelBackgroundColor=#ffffff;imageAspect=0;aspect=fixed;image=https://cdn0.iconfinder.com/data/icons/google-material-design-3-0/48/ic_delete_forever_48px-128.png;fontFamily=Helvetica;fontSize=11;fontColor=default;" parent="qSg4JuXbs9vaGkgjDfCH-207" vertex="1">
          <mxGeometry x="431" y="6" width="20" height="20" as="geometry" />
        </mxCell>
        <mxCell id="qSg4JuXbs9vaGkgjDfCH-194" value="" style="html=1;dashed=0;aspect=fixed;verticalLabelPosition=bottom;verticalAlign=top;align=center;shape=mxgraph.gmdl.edit;strokeColor=none;fillColor=#000000;shadow=0;sketch=0;fontFamily=Helvetica;fontSize=11;fontColor=default;labelBackgroundColor=default;" parent="qSg4JuXbs9vaGkgjDfCH-207" vertex="1">
          <mxGeometry x="400" y="7" width="16" height="16" as="geometry" />
        </mxCell>
        <mxCell id="qSg4JuXbs9vaGkgjDfCH-208" value="" style="group" parent="qSg4JuXbs9vaGkgjDfCH-142" vertex="1" connectable="0">
          <mxGeometry x="287" y="380" width="451" height="30" as="geometry" />
        </mxCell>
        <mxCell id="qSg4JuXbs9vaGkgjDfCH-200" value="&lt;div&gt;&lt;font style=&quot;&quot;&gt;&lt;b&gt;Bachelor of Commerce&lt;/b&gt;&lt;/font&gt;&lt;/div&gt;&lt;div&gt;&lt;font style=&quot;font-size: 8px;&quot;&gt;University of New South Wales&lt;/font&gt;&lt;/div&gt;&lt;div&gt;&lt;font color=&quot;#a1a1a1&quot; style=&quot;font-size: 8px;&quot;&gt;Sep 2020 - Jul 2024&lt;/font&gt;&lt;/div&gt;" style="text;html=1;align=left;verticalAlign=middle;whiteSpace=wrap;rounded=0;fontFamily=Helvetica;fontSize=11;fontColor=default;labelBackgroundColor=default;" parent="qSg4JuXbs9vaGkgjDfCH-208" vertex="1">
          <mxGeometry y="-5" width="203" height="40" as="geometry" />
        </mxCell>
        <mxCell id="qSg4JuXbs9vaGkgjDfCH-202" value="" style="shape=image;html=1;verticalAlign=top;verticalLabelPosition=bottom;labelBackgroundColor=#ffffff;imageAspect=0;aspect=fixed;image=https://cdn0.iconfinder.com/data/icons/google-material-design-3-0/48/ic_delete_forever_48px-128.png;fontFamily=Helvetica;fontSize=11;fontColor=default;" parent="qSg4JuXbs9vaGkgjDfCH-208" vertex="1">
          <mxGeometry x="431" y="6" width="20" height="20" as="geometry" />
        </mxCell>
        <mxCell id="qSg4JuXbs9vaGkgjDfCH-203" value="" style="html=1;dashed=0;aspect=fixed;verticalLabelPosition=bottom;verticalAlign=top;align=center;shape=mxgraph.gmdl.edit;strokeColor=none;fillColor=#000000;shadow=0;sketch=0;fontFamily=Helvetica;fontSize=11;fontColor=default;labelBackgroundColor=default;" parent="qSg4JuXbs9vaGkgjDfCH-208" vertex="1">
          <mxGeometry x="400" y="7" width="16" height="16" as="geometry" />
        </mxCell>
        <mxCell id="qSg4JuXbs9vaGkgjDfCH-334" value="" style="group" parent="qSg4JuXbs9vaGkgjDfCH-142" vertex="1" connectable="0">
          <mxGeometry x="470" y="568" width="137" height="82" as="geometry" />
        </mxCell>
        <mxCell id="qSg4JuXbs9vaGkgjDfCH-335" value="" style="group" parent="qSg4JuXbs9vaGkgjDfCH-334" vertex="1" connectable="0">
          <mxGeometry width="137" height="40" as="geometry" />
        </mxCell>
        <mxCell id="qSg4JuXbs9vaGkgjDfCH-336" value="Next step" style="rounded=1;fillColor=#0057D8;strokeColor=none;html=1;whiteSpace=wrap;fontColor=#ffffff;align=center;verticalAlign=middle;fontStyle=0;fontSize=12;sketch=0;" parent="qSg4JuXbs9vaGkgjDfCH-335" vertex="1">
          <mxGeometry width="128" height="40" as="geometry" />
        </mxCell>
        <mxCell id="qSg4JuXbs9vaGkgjDfCH-337" value="&lt;b&gt;&lt;font color=&quot;#ffffff&quot;&gt;&amp;gt;&lt;/font&gt;&lt;/b&gt;" style="text;html=1;align=center;verticalAlign=middle;whiteSpace=wrap;rounded=0;" parent="qSg4JuXbs9vaGkgjDfCH-335" vertex="1">
          <mxGeometry x="77" y="4.5" width="60" height="30" as="geometry" />
        </mxCell>
        <mxCell id="qSg4JuXbs9vaGkgjDfCH-338" value="&lt;font color=&quot;#a1a1a1&quot;&gt;&amp;lt;&amp;nbsp; Previous step&lt;/font&gt;" style="fillColor=none;strokeColor=none;html=1;fontColor=#0057D8;align=center;verticalAlign=middle;fontStyle=0;fontSize=12;fontFamily=Helvetica;labelBackgroundColor=default;" parent="qSg4JuXbs9vaGkgjDfCH-334" vertex="1">
          <mxGeometry x="21" y="49" width="86" height="33" as="geometry" />
        </mxCell>
        <mxCell id="qSg4JuXbs9vaGkgjDfCH-209" style="edgeStyle=orthogonalEdgeStyle;shape=connector;curved=0;rounded=1;orthogonalLoop=1;jettySize=auto;html=1;strokeColor=default;align=center;verticalAlign=middle;fontFamily=Helvetica;fontSize=11;fontColor=default;labelBackgroundColor=default;endArrow=classic;flowAnimation=1;" parent="1" source="qSg4JuXbs9vaGkgjDfCH-37" target="qSg4JuXbs9vaGkgjDfCH-142" edge="1">
          <mxGeometry relative="1" as="geometry" />
        </mxCell>
        <mxCell id="qSg4JuXbs9vaGkgjDfCH-210" value="" style="strokeWidth=1;shadow=0;dashed=0;align=center;html=1;shape=mxgraph.mockup.containers.browserWindow;rSize=0;strokeColor=#666666;strokeColor2=#008cff;strokeColor3=#c4c4c4;mainText=,;recursiveResize=0;" parent="1" vertex="1">
          <mxGeometry x="2050" y="1760" width="1080" height="1060" as="geometry" />
        </mxCell>
        <mxCell id="qSg4JuXbs9vaGkgjDfCH-211" value="Generate your CV!" style="strokeWidth=1;shadow=0;dashed=0;align=center;html=1;shape=mxgraph.mockup.containers.anchor;fontSize=17;fontColor=#666666;align=left;whiteSpace=wrap;" parent="qSg4JuXbs9vaGkgjDfCH-210" vertex="1">
          <mxGeometry x="60" y="12" width="190" height="26" as="geometry" />
        </mxCell>
        <mxCell id="qSg4JuXbs9vaGkgjDfCH-212" value="https://www.draw.io" style="strokeWidth=1;shadow=0;dashed=0;align=center;html=1;shape=mxgraph.mockup.containers.anchor;rSize=0;fontSize=17;fontColor=#666666;align=left;" parent="qSg4JuXbs9vaGkgjDfCH-210" vertex="1">
          <mxGeometry x="130" y="60" width="250" height="26" as="geometry" />
        </mxCell>
        <mxCell id="qSg4JuXbs9vaGkgjDfCH-213" value="" style="html=1;shadow=0;dashed=0;fillColor=#F8F9FA;strokeColor=none;fontSize=16;fontColor=#181819;align=left;spacing=2;spacingLeft=55;" parent="qSg4JuXbs9vaGkgjDfCH-210" vertex="1">
          <mxGeometry y="110" width="1080" height="60" as="geometry" />
        </mxCell>
        <mxCell id="qSg4JuXbs9vaGkgjDfCH-214" value="" style="shape=image;html=1;verticalAlign=top;verticalLabelPosition=bottom;labelBackgroundColor=#ffffff;imageAspect=0;aspect=fixed;image=https://cdn0.iconfinder.com/data/icons/phosphor-fill-vol-4/256/placeholder-fill-128.png" parent="qSg4JuXbs9vaGkgjDfCH-210" vertex="1">
          <mxGeometry x="40" y="125" width="34" height="34" as="geometry" />
        </mxCell>
        <mxCell id="qSg4JuXbs9vaGkgjDfCH-215" value="&lt;b style=&quot;font-size: 16px;&quot;&gt;CV Generator&lt;/b&gt;" style="text;html=1;align=left;verticalAlign=middle;whiteSpace=wrap;rounded=0;fontSize=16;" parent="qSg4JuXbs9vaGkgjDfCH-210" vertex="1">
          <mxGeometry x="85" y="127" width="140" height="30" as="geometry" />
        </mxCell>
        <mxCell id="qSg4JuXbs9vaGkgjDfCH-216" value="&lt;b style=&quot;&quot;&gt;&lt;font style=&quot;font-size: 20px;&quot;&gt;Education and Qualifications&lt;/font&gt;&lt;/b&gt;" style="text;html=1;align=center;verticalAlign=middle;whiteSpace=wrap;rounded=0;fontSize=28;" parent="qSg4JuXbs9vaGkgjDfCH-210" vertex="1">
          <mxGeometry x="382.5" y="210" width="285" height="30" as="geometry" />
        </mxCell>
        <mxCell id="qSg4JuXbs9vaGkgjDfCH-220" value="" style="rounded=1;whiteSpace=wrap;html=1;arcSize=4;textShadow=0;shadow=1;strokeColor=none;" parent="qSg4JuXbs9vaGkgjDfCH-210" vertex="1">
          <mxGeometry x="250" y="258" width="550" height="660" as="geometry" />
        </mxCell>
        <mxCell id="qSg4JuXbs9vaGkgjDfCH-221" value="" style="group" parent="qSg4JuXbs9vaGkgjDfCH-210" vertex="1" connectable="0">
          <mxGeometry x="289.5" y="438" width="210" height="58" as="geometry" />
        </mxCell>
        <mxCell id="qSg4JuXbs9vaGkgjDfCH-222" value="Degree" style="fillColor=none;strokeColor=none;html=1;fontSize=11;fontStyle=0;align=left;fontColor=#596780;fontStyle=1;fontSize=11" parent="qSg4JuXbs9vaGkgjDfCH-221" vertex="1">
          <mxGeometry width="96.83333333333334" height="20" as="geometry" />
        </mxCell>
        <mxCell id="qSg4JuXbs9vaGkgjDfCH-223" value="&lt;font color=&quot;#a1a1a1&quot;&gt;Bachelor of Commerce&lt;/font&gt;" style="rounded=1;arcSize=9;fillColor=#F7F8F9;align=left;spacingLeft=5;strokeColor=#DEE1E6;html=1;strokeWidth=2;fontSize=12" parent="qSg4JuXbs9vaGkgjDfCH-221" vertex="1">
          <mxGeometry y="25" width="210" height="33" as="geometry" />
        </mxCell>
        <mxCell id="qSg4JuXbs9vaGkgjDfCH-224" value="" style="group" parent="qSg4JuXbs9vaGkgjDfCH-210" vertex="1" connectable="0">
          <mxGeometry x="288" y="518" width="450" height="58" as="geometry" />
        </mxCell>
        <mxCell id="qSg4JuXbs9vaGkgjDfCH-225" value="School*" style="fillColor=none;strokeColor=none;html=1;fontSize=11;fontStyle=0;align=left;fontColor=#596780;fontStyle=1;fontSize=11" parent="qSg4JuXbs9vaGkgjDfCH-224" vertex="1">
          <mxGeometry width="210" height="20" as="geometry" />
        </mxCell>
        <mxCell id="qSg4JuXbs9vaGkgjDfCH-226" value="New York University" style="rounded=1;arcSize=9;fillColor=#F7F8F9;align=left;spacingLeft=5;strokeColor=#DEE1E6;html=1;strokeWidth=2;fontSize=12;fontColor=#A1A1A1;" parent="qSg4JuXbs9vaGkgjDfCH-224" vertex="1">
          <mxGeometry y="25" width="450" height="33" as="geometry" />
        </mxCell>
        <mxCell id="qSg4JuXbs9vaGkgjDfCH-227" value="" style="group" parent="qSg4JuXbs9vaGkgjDfCH-210" vertex="1" connectable="0">
          <mxGeometry x="528" y="438" width="210" height="58" as="geometry" />
        </mxCell>
        <mxCell id="qSg4JuXbs9vaGkgjDfCH-228" value="Major" style="fillColor=none;strokeColor=none;html=1;fontSize=11;fontStyle=0;align=left;fontColor=#596780;fontStyle=1;fontSize=11" parent="qSg4JuXbs9vaGkgjDfCH-227" vertex="1">
          <mxGeometry width="96.83333333333334" height="20" as="geometry" />
        </mxCell>
        <mxCell id="qSg4JuXbs9vaGkgjDfCH-229" value="&lt;font color=&quot;#a1a1a1&quot;&gt;Finance/Accounting&lt;/font&gt;" style="rounded=1;arcSize=9;fillColor=#F7F8F9;align=left;spacingLeft=5;strokeColor=#DEE1E6;html=1;strokeWidth=2;fontSize=12" parent="qSg4JuXbs9vaGkgjDfCH-227" vertex="1">
          <mxGeometry y="25" width="210" height="33" as="geometry" />
        </mxCell>
        <mxCell id="qSg4JuXbs9vaGkgjDfCH-230" value="" style="group" parent="qSg4JuXbs9vaGkgjDfCH-210" vertex="1" connectable="0">
          <mxGeometry x="288" y="594" width="199" height="58" as="geometry" />
        </mxCell>
        <mxCell id="qSg4JuXbs9vaGkgjDfCH-231" value="Start date" style="fillColor=none;strokeColor=none;html=1;fontSize=11;fontStyle=0;align=left;fontColor=#596780;fontStyle=1;fontSize=11" parent="qSg4JuXbs9vaGkgjDfCH-230" vertex="1">
          <mxGeometry width="96.83333333333334" height="20" as="geometry" />
        </mxCell>
        <mxCell id="qSg4JuXbs9vaGkgjDfCH-232" value="" style="group" parent="qSg4JuXbs9vaGkgjDfCH-230" vertex="1" connectable="0">
          <mxGeometry y="25" width="90" height="33" as="geometry" />
        </mxCell>
        <mxCell id="qSg4JuXbs9vaGkgjDfCH-233" value="&lt;font color=&quot;#a1a1a1&quot;&gt;March&lt;/font&gt;" style="rounded=1;arcSize=9;fillColor=#F7F8F9;align=left;spacingLeft=5;strokeColor=#DEE1E6;html=1;strokeWidth=2;fontSize=12" parent="qSg4JuXbs9vaGkgjDfCH-232" vertex="1">
          <mxGeometry width="90" height="33" as="geometry" />
        </mxCell>
        <mxCell id="qSg4JuXbs9vaGkgjDfCH-234" value="" style="verticalLabelPosition=bottom;verticalAlign=top;html=1;shape=mxgraph.basic.acute_triangle;dx=0.5;rotation=-180;fillColor=#000000;" parent="qSg4JuXbs9vaGkgjDfCH-232" vertex="1">
          <mxGeometry x="79" y="17.120000000000005" width="3.29" height="2.77" as="geometry" />
        </mxCell>
        <mxCell id="qSg4JuXbs9vaGkgjDfCH-235" value="" style="group" parent="qSg4JuXbs9vaGkgjDfCH-230" vertex="1" connectable="0">
          <mxGeometry x="109" y="25" width="90" height="33" as="geometry" />
        </mxCell>
        <mxCell id="qSg4JuXbs9vaGkgjDfCH-236" value="&lt;font color=&quot;#a1a1a1&quot;&gt;2020&lt;/font&gt;" style="rounded=1;arcSize=9;fillColor=#F7F8F9;align=left;spacingLeft=5;strokeColor=#DEE1E6;html=1;strokeWidth=2;fontSize=12" parent="qSg4JuXbs9vaGkgjDfCH-235" vertex="1">
          <mxGeometry width="90" height="33" as="geometry" />
        </mxCell>
        <mxCell id="qSg4JuXbs9vaGkgjDfCH-237" value="" style="verticalLabelPosition=bottom;verticalAlign=top;html=1;shape=mxgraph.basic.acute_triangle;dx=0.5;rotation=-180;fillColor=#000000;" parent="qSg4JuXbs9vaGkgjDfCH-235" vertex="1">
          <mxGeometry x="79" y="17.120000000000005" width="3.29" height="2.77" as="geometry" />
        </mxCell>
        <mxCell id="qSg4JuXbs9vaGkgjDfCH-238" value="" style="group" parent="qSg4JuXbs9vaGkgjDfCH-210" vertex="1" connectable="0">
          <mxGeometry x="528" y="594" width="199" height="58" as="geometry" />
        </mxCell>
        <mxCell id="qSg4JuXbs9vaGkgjDfCH-239" value="End date" style="fillColor=none;strokeColor=none;html=1;fontSize=11;fontStyle=0;align=left;fontColor=#596780;fontStyle=1;fontSize=11" parent="qSg4JuXbs9vaGkgjDfCH-238" vertex="1">
          <mxGeometry width="96.83333333333334" height="20" as="geometry" />
        </mxCell>
        <mxCell id="qSg4JuXbs9vaGkgjDfCH-240" value="" style="group" parent="qSg4JuXbs9vaGkgjDfCH-238" vertex="1" connectable="0">
          <mxGeometry y="25" width="90" height="33" as="geometry" />
        </mxCell>
        <mxCell id="qSg4JuXbs9vaGkgjDfCH-241" value="&lt;font color=&quot;#a1a1a1&quot;&gt;September&lt;/font&gt;" style="rounded=1;arcSize=9;fillColor=#F7F8F9;align=left;spacingLeft=5;strokeColor=#DEE1E6;html=1;strokeWidth=2;fontSize=12" parent="qSg4JuXbs9vaGkgjDfCH-240" vertex="1">
          <mxGeometry width="90" height="33" as="geometry" />
        </mxCell>
        <mxCell id="qSg4JuXbs9vaGkgjDfCH-242" value="" style="verticalLabelPosition=bottom;verticalAlign=top;html=1;shape=mxgraph.basic.acute_triangle;dx=0.5;rotation=-180;fillColor=#000000;" parent="qSg4JuXbs9vaGkgjDfCH-240" vertex="1">
          <mxGeometry x="79" y="17.120000000000005" width="3.29" height="2.77" as="geometry" />
        </mxCell>
        <mxCell id="qSg4JuXbs9vaGkgjDfCH-243" value="" style="group" parent="qSg4JuXbs9vaGkgjDfCH-238" vertex="1" connectable="0">
          <mxGeometry x="109" y="25" width="90" height="33" as="geometry" />
        </mxCell>
        <mxCell id="qSg4JuXbs9vaGkgjDfCH-244" value="&lt;font color=&quot;#a1a1a1&quot;&gt;2024&lt;/font&gt;" style="rounded=1;arcSize=9;fillColor=#F7F8F9;align=left;spacingLeft=5;strokeColor=#DEE1E6;html=1;strokeWidth=2;fontSize=12" parent="qSg4JuXbs9vaGkgjDfCH-243" vertex="1">
          <mxGeometry width="90" height="33" as="geometry" />
        </mxCell>
        <mxCell id="qSg4JuXbs9vaGkgjDfCH-245" value="" style="verticalLabelPosition=bottom;verticalAlign=top;html=1;shape=mxgraph.basic.acute_triangle;dx=0.5;rotation=-180;fillColor=#000000;" parent="qSg4JuXbs9vaGkgjDfCH-243" vertex="1">
          <mxGeometry x="79" y="17.120000000000005" width="3.29" height="2.77" as="geometry" />
        </mxCell>
        <mxCell id="qSg4JuXbs9vaGkgjDfCH-247" value="" style="group" parent="qSg4JuXbs9vaGkgjDfCH-210" vertex="1" connectable="0">
          <mxGeometry x="288" y="668" width="450" height="90" as="geometry" />
        </mxCell>
        <mxCell id="qSg4JuXbs9vaGkgjDfCH-248" value="Description" style="fillColor=none;strokeColor=none;html=1;fontSize=11;fontStyle=0;align=left;fontColor=#596780;fontStyle=1;fontSize=11" parent="qSg4JuXbs9vaGkgjDfCH-247" vertex="1">
          <mxGeometry width="210" height="15" as="geometry" />
        </mxCell>
        <mxCell id="qSg4JuXbs9vaGkgjDfCH-249" value="" style="rounded=1;arcSize=9;fillColor=#F7F8F9;align=left;spacingLeft=5;strokeColor=#DEE1E6;html=1;strokeWidth=2;fontSize=12;fontColor=#A1A1A1;" parent="qSg4JuXbs9vaGkgjDfCH-247" vertex="1">
          <mxGeometry y="21.75" width="450" height="71.25" as="geometry" />
        </mxCell>
        <mxCell id="qSg4JuXbs9vaGkgjDfCH-250" value="&lt;font style=&quot;font-size: 10px;&quot;&gt;Delete&lt;/font&gt;" style="html=1;shadow=0;dashed=0;shape=mxgraph.bootstrap.rrect;rSize=5;strokeWidth=1;whiteSpace=wrap;align=center;verticalAlign=middle;spacingLeft=0;fontStyle=0;fontSize=10;spacing=5;strokeColor=#A1A1A1;" parent="qSg4JuXbs9vaGkgjDfCH-210" vertex="1">
          <mxGeometry x="617" y="771" width="57" height="30" as="geometry" />
        </mxCell>
        <mxCell id="qSg4JuXbs9vaGkgjDfCH-251" value="&lt;font style=&quot;font-size: 10px;&quot;&gt;Save&lt;/font&gt;" style="html=1;shadow=0;dashed=0;shape=mxgraph.bootstrap.rrect;rSize=5;strokeWidth=1;whiteSpace=wrap;align=center;verticalAlign=middle;spacingLeft=0;fontStyle=0;fontSize=10;spacing=5;strokeColor=#A1A1A1;" parent="qSg4JuXbs9vaGkgjDfCH-210" vertex="1">
          <mxGeometry x="681" y="771" width="57" height="30" as="geometry" />
        </mxCell>
        <mxCell id="qSg4JuXbs9vaGkgjDfCH-252" value="" style="group" parent="qSg4JuXbs9vaGkgjDfCH-210" vertex="1" connectable="0">
          <mxGeometry x="288" y="838" width="450" height="40" as="geometry" />
        </mxCell>
        <mxCell id="qSg4JuXbs9vaGkgjDfCH-253" value="Add another education or qualification" style="html=1;shadow=0;dashed=0;shape=mxgraph.bootstrap.rrect;rSize=5;strokeColor=none;strokeWidth=1;fillColor=#E8E8E8;fontColor=#000000;whiteSpace=wrap;align=center;verticalAlign=middle;spacingLeft=0;fontStyle=0;fontSize=10;spacing=5;" parent="qSg4JuXbs9vaGkgjDfCH-252" vertex="1">
          <mxGeometry width="450" height="40" as="geometry" />
        </mxCell>
        <mxCell id="qSg4JuXbs9vaGkgjDfCH-254" value="" style="html=1;verticalLabelPosition=bottom;align=center;labelBackgroundColor=#ffffff;verticalAlign=top;strokeWidth=1;strokeColor=#000000;shadow=0;dashed=0;shape=mxgraph.ios7.icons.add;fillColor=none;" parent="qSg4JuXbs9vaGkgjDfCH-252" vertex="1">
          <mxGeometry x="119" y="15" width="10" height="10" as="geometry" />
        </mxCell>
        <mxCell id="qSg4JuXbs9vaGkgjDfCH-268" value="" style="line;strokeWidth=1;rotatable=0;dashed=0;labelPosition=right;align=left;verticalAlign=middle;spacingTop=0;spacingLeft=6;points=[];portConstraint=eastwest;fontFamily=Helvetica;fontSize=11;fontColor=default;labelBackgroundColor=default;fillColor=none;strokeColor=#E8E8E8;" parent="qSg4JuXbs9vaGkgjDfCH-210" vertex="1">
          <mxGeometry x="288" y="278" width="452" height="10" as="geometry" />
        </mxCell>
        <mxCell id="qSg4JuXbs9vaGkgjDfCH-269" value="" style="line;strokeWidth=1;rotatable=0;dashed=0;labelPosition=right;align=left;verticalAlign=middle;spacingTop=0;spacingLeft=6;points=[];portConstraint=eastwest;fontFamily=Helvetica;fontSize=11;fontColor=default;labelBackgroundColor=default;fillColor=none;strokeColor=#E8E8E8;" parent="qSg4JuXbs9vaGkgjDfCH-210" vertex="1">
          <mxGeometry x="288" y="338" width="452" height="10" as="geometry" />
        </mxCell>
        <mxCell id="qSg4JuXbs9vaGkgjDfCH-270" value="" style="line;strokeWidth=1;rotatable=0;dashed=0;labelPosition=right;align=left;verticalAlign=middle;spacingTop=0;spacingLeft=6;points=[];portConstraint=eastwest;fontFamily=Helvetica;fontSize=11;fontColor=default;labelBackgroundColor=default;fillColor=none;strokeColor=#E8E8E8;" parent="qSg4JuXbs9vaGkgjDfCH-210" vertex="1">
          <mxGeometry x="288" y="398" width="452" height="10" as="geometry" />
        </mxCell>
        <mxCell id="qSg4JuXbs9vaGkgjDfCH-271" value="" style="group" parent="qSg4JuXbs9vaGkgjDfCH-210" vertex="1" connectable="0">
          <mxGeometry x="288" y="298" width="451" height="30" as="geometry" />
        </mxCell>
        <mxCell id="qSg4JuXbs9vaGkgjDfCH-272" value="&lt;b&gt;ICAgile Product Owner&lt;/b&gt;&lt;div&gt;&lt;font style=&quot;font-size: 8px;&quot;&gt;Sep 2024 - Present&lt;/font&gt;&lt;/div&gt;" style="text;html=1;align=left;verticalAlign=middle;whiteSpace=wrap;rounded=0;fontFamily=Helvetica;fontSize=11;fontColor=default;labelBackgroundColor=default;" parent="qSg4JuXbs9vaGkgjDfCH-271" vertex="1">
          <mxGeometry width="203" height="30" as="geometry" />
        </mxCell>
        <mxCell id="qSg4JuXbs9vaGkgjDfCH-273" value="" style="shape=image;html=1;verticalAlign=top;verticalLabelPosition=bottom;labelBackgroundColor=#ffffff;imageAspect=0;aspect=fixed;image=https://cdn0.iconfinder.com/data/icons/google-material-design-3-0/48/ic_delete_forever_48px-128.png;fontFamily=Helvetica;fontSize=11;fontColor=default;" parent="qSg4JuXbs9vaGkgjDfCH-271" vertex="1">
          <mxGeometry x="431" y="6" width="20" height="20" as="geometry" />
        </mxCell>
        <mxCell id="qSg4JuXbs9vaGkgjDfCH-274" value="" style="html=1;dashed=0;aspect=fixed;verticalLabelPosition=bottom;verticalAlign=top;align=center;shape=mxgraph.gmdl.edit;strokeColor=none;fillColor=#000000;shadow=0;sketch=0;fontFamily=Helvetica;fontSize=11;fontColor=default;labelBackgroundColor=default;" parent="qSg4JuXbs9vaGkgjDfCH-271" vertex="1">
          <mxGeometry x="400" y="7" width="16" height="16" as="geometry" />
        </mxCell>
        <mxCell id="qSg4JuXbs9vaGkgjDfCH-275" value="" style="group" parent="qSg4JuXbs9vaGkgjDfCH-210" vertex="1" connectable="0">
          <mxGeometry x="288" y="358" width="451" height="30" as="geometry" />
        </mxCell>
        <mxCell id="qSg4JuXbs9vaGkgjDfCH-276" value="&lt;div&gt;&lt;font style=&quot;&quot;&gt;&lt;b&gt;Bachelor of Commerce&lt;/b&gt;&lt;/font&gt;&lt;/div&gt;&lt;div&gt;&lt;font style=&quot;font-size: 8px;&quot;&gt;Sep 2020 - Jul 2024&lt;/font&gt;&lt;/div&gt;" style="text;html=1;align=left;verticalAlign=middle;whiteSpace=wrap;rounded=0;fontFamily=Helvetica;fontSize=11;fontColor=default;labelBackgroundColor=default;" parent="qSg4JuXbs9vaGkgjDfCH-275" vertex="1">
          <mxGeometry width="203" height="30" as="geometry" />
        </mxCell>
        <mxCell id="qSg4JuXbs9vaGkgjDfCH-277" value="" style="shape=image;html=1;verticalAlign=top;verticalLabelPosition=bottom;labelBackgroundColor=#ffffff;imageAspect=0;aspect=fixed;image=https://cdn0.iconfinder.com/data/icons/google-material-design-3-0/48/ic_delete_forever_48px-128.png;fontFamily=Helvetica;fontSize=11;fontColor=default;" parent="qSg4JuXbs9vaGkgjDfCH-275" vertex="1">
          <mxGeometry x="431" y="6" width="20" height="20" as="geometry" />
        </mxCell>
        <mxCell id="qSg4JuXbs9vaGkgjDfCH-278" value="" style="html=1;dashed=0;aspect=fixed;verticalLabelPosition=bottom;verticalAlign=top;align=center;shape=mxgraph.gmdl.edit;strokeColor=none;fillColor=#000000;shadow=0;sketch=0;fontFamily=Helvetica;fontSize=11;fontColor=default;labelBackgroundColor=default;" parent="qSg4JuXbs9vaGkgjDfCH-275" vertex="1">
          <mxGeometry x="400" y="7" width="16" height="16" as="geometry" />
        </mxCell>
        <mxCell id="qSg4JuXbs9vaGkgjDfCH-283" value="If editing existing entry, values should be pre-populated" style="text;html=1;align=center;verticalAlign=middle;whiteSpace=wrap;rounded=0;fontFamily=Courier New;fillColor=#fff2cc;strokeColor=#d6b656;" parent="qSg4JuXbs9vaGkgjDfCH-210" vertex="1">
          <mxGeometry x="60" y="358" width="120" height="130" as="geometry" />
        </mxCell>
        <mxCell id="qSg4JuXbs9vaGkgjDfCH-279" style="edgeStyle=orthogonalEdgeStyle;shape=connector;curved=0;rounded=1;orthogonalLoop=1;jettySize=auto;html=1;strokeColor=default;align=center;verticalAlign=middle;fontFamily=Helvetica;fontSize=11;fontColor=default;labelBackgroundColor=default;endArrow=classic;flowAnimation=1;" parent="1" source="qSg4JuXbs9vaGkgjDfCH-39" target="qSg4JuXbs9vaGkgjDfCH-210" edge="1">
          <mxGeometry relative="1" as="geometry" />
        </mxCell>
        <mxCell id="qSg4JuXbs9vaGkgjDfCH-280" style="edgeStyle=orthogonalEdgeStyle;shape=connector;curved=0;rounded=1;orthogonalLoop=1;jettySize=auto;html=1;strokeColor=default;align=center;verticalAlign=middle;fontFamily=Helvetica;fontSize=11;fontColor=default;labelBackgroundColor=default;endArrow=classic;flowAnimation=1;" parent="1" source="qSg4JuXbs9vaGkgjDfCH-205" target="qSg4JuXbs9vaGkgjDfCH-210" edge="1">
          <mxGeometry relative="1" as="geometry" />
        </mxCell>
        <mxCell id="qSg4JuXbs9vaGkgjDfCH-281" style="edgeStyle=orthogonalEdgeStyle;shape=connector;curved=0;rounded=1;orthogonalLoop=1;jettySize=auto;html=1;strokeColor=default;align=center;verticalAlign=middle;fontFamily=Helvetica;fontSize=11;fontColor=default;labelBackgroundColor=default;endArrow=classic;flowAnimation=1;exitX=1;exitY=0.5;exitDx=0;exitDy=0;" parent="1" source="qSg4JuXbs9vaGkgjDfCH-337" target="qSg4JuXbs9vaGkgjDfCH-89" edge="1">
          <mxGeometry relative="1" as="geometry">
            <mxPoint x="2404" y="1620" as="sourcePoint" />
          </mxGeometry>
        </mxCell>
        <mxCell id="qSg4JuXbs9vaGkgjDfCH-282" style="edgeStyle=orthogonalEdgeStyle;shape=connector;curved=0;rounded=1;orthogonalLoop=1;jettySize=auto;html=1;strokeColor=default;align=center;verticalAlign=middle;fontFamily=Helvetica;fontSize=11;fontColor=default;labelBackgroundColor=default;endArrow=classic;flowAnimation=1;exitX=1;exitY=0.5;exitDx=0;exitDy=0;" parent="1" source="qSg4JuXbs9vaGkgjDfCH-342" target="qSg4JuXbs9vaGkgjDfCH-89" edge="1">
          <mxGeometry relative="1" as="geometry">
            <mxPoint x="2628" y="2738" as="sourcePoint" />
          </mxGeometry>
        </mxCell>
        <mxCell id="qSg4JuXbs9vaGkgjDfCH-297" value="" style="strokeWidth=1;shadow=0;dashed=0;align=center;html=1;shape=mxgraph.mockup.containers.browserWindow;rSize=0;strokeColor=#666666;strokeColor2=#008cff;strokeColor3=#c4c4c4;mainText=,;recursiveResize=0;" parent="1" vertex="1">
          <mxGeometry x="4400" y="1070" width="1080" height="690" as="geometry" />
        </mxCell>
        <mxCell id="qSg4JuXbs9vaGkgjDfCH-298" value="Generate your CV!" style="strokeWidth=1;shadow=0;dashed=0;align=center;html=1;shape=mxgraph.mockup.containers.anchor;fontSize=17;fontColor=#666666;align=left;whiteSpace=wrap;" parent="qSg4JuXbs9vaGkgjDfCH-297" vertex="1">
          <mxGeometry x="60" y="12" width="190" height="26" as="geometry" />
        </mxCell>
        <mxCell id="qSg4JuXbs9vaGkgjDfCH-299" value="https://www.draw.io" style="strokeWidth=1;shadow=0;dashed=0;align=center;html=1;shape=mxgraph.mockup.containers.anchor;rSize=0;fontSize=17;fontColor=#666666;align=left;" parent="qSg4JuXbs9vaGkgjDfCH-297" vertex="1">
          <mxGeometry x="130" y="60" width="250" height="26" as="geometry" />
        </mxCell>
        <mxCell id="qSg4JuXbs9vaGkgjDfCH-300" value="" style="html=1;shadow=0;dashed=0;fillColor=#F8F9FA;strokeColor=none;fontSize=16;fontColor=#181819;align=left;spacing=2;spacingLeft=55;" parent="qSg4JuXbs9vaGkgjDfCH-297" vertex="1">
          <mxGeometry y="110" width="1080" height="60" as="geometry" />
        </mxCell>
        <mxCell id="qSg4JuXbs9vaGkgjDfCH-301" value="" style="shape=image;html=1;verticalAlign=top;verticalLabelPosition=bottom;labelBackgroundColor=#ffffff;imageAspect=0;aspect=fixed;image=https://cdn0.iconfinder.com/data/icons/phosphor-fill-vol-4/256/placeholder-fill-128.png" parent="qSg4JuXbs9vaGkgjDfCH-297" vertex="1">
          <mxGeometry x="40" y="125" width="34" height="34" as="geometry" />
        </mxCell>
        <mxCell id="qSg4JuXbs9vaGkgjDfCH-302" value="&lt;b style=&quot;font-size: 16px;&quot;&gt;CV Generator&lt;/b&gt;" style="text;html=1;align=left;verticalAlign=middle;whiteSpace=wrap;rounded=0;fontSize=16;" parent="qSg4JuXbs9vaGkgjDfCH-297" vertex="1">
          <mxGeometry x="85" y="127" width="140" height="30" as="geometry" />
        </mxCell>
        <mxCell id="qSg4JuXbs9vaGkgjDfCH-303" value="&lt;b&gt;&lt;font style=&quot;font-size: 20px;&quot;&gt;Professional Experience&lt;/font&gt;&lt;/b&gt;" style="text;html=1;align=center;verticalAlign=middle;whiteSpace=wrap;rounded=0;fontSize=28;" parent="qSg4JuXbs9vaGkgjDfCH-297" vertex="1">
          <mxGeometry x="382.5" y="210" width="285" height="30" as="geometry" />
        </mxCell>
        <mxCell id="qSg4JuXbs9vaGkgjDfCH-307" value="" style="rounded=1;whiteSpace=wrap;html=1;arcSize=4;textShadow=0;shadow=1;strokeColor=none;" parent="qSg4JuXbs9vaGkgjDfCH-297" vertex="1">
          <mxGeometry x="250" y="280" width="550" height="260" as="geometry" />
        </mxCell>
        <mxCell id="qSg4JuXbs9vaGkgjDfCH-308" value="" style="line;strokeWidth=1;rotatable=0;dashed=0;labelPosition=right;align=left;verticalAlign=middle;spacingTop=0;spacingLeft=6;points=[];portConstraint=eastwest;fontFamily=Helvetica;fontSize=11;fontColor=default;labelBackgroundColor=default;fillColor=none;strokeColor=#E8E8E8;" parent="qSg4JuXbs9vaGkgjDfCH-297" vertex="1">
          <mxGeometry x="287" y="300" width="473" height="10" as="geometry" />
        </mxCell>
        <mxCell id="qSg4JuXbs9vaGkgjDfCH-309" value="" style="line;strokeWidth=1;rotatable=0;dashed=0;labelPosition=right;align=left;verticalAlign=middle;spacingTop=0;spacingLeft=6;points=[];portConstraint=eastwest;fontFamily=Helvetica;fontSize=11;fontColor=default;labelBackgroundColor=default;fillColor=none;strokeColor=#E8E8E8;" parent="qSg4JuXbs9vaGkgjDfCH-297" vertex="1">
          <mxGeometry x="287" y="360" width="473" height="10" as="geometry" />
        </mxCell>
        <mxCell id="qSg4JuXbs9vaGkgjDfCH-310" value="In future, enable reordering. Right now, sort by reverse chronological order (newest at top)" style="text;html=1;align=center;verticalAlign=middle;whiteSpace=wrap;rounded=0;fontFamily=Courier New;fillColor=#fff2cc;strokeColor=#d6b656;" parent="qSg4JuXbs9vaGkgjDfCH-297" vertex="1">
          <mxGeometry x="776" y="290" width="120" height="130" as="geometry" />
        </mxCell>
        <mxCell id="qSg4JuXbs9vaGkgjDfCH-311" value="" style="line;strokeWidth=1;rotatable=0;dashed=0;labelPosition=right;align=left;verticalAlign=middle;spacingTop=0;spacingLeft=6;points=[];portConstraint=eastwest;fontFamily=Helvetica;fontSize=11;fontColor=default;labelBackgroundColor=default;fillColor=none;strokeColor=#E8E8E8;" parent="qSg4JuXbs9vaGkgjDfCH-297" vertex="1">
          <mxGeometry x="287" y="420" width="473" height="10" as="geometry" />
        </mxCell>
        <mxCell id="qSg4JuXbs9vaGkgjDfCH-312" value="" style="group" parent="qSg4JuXbs9vaGkgjDfCH-297" vertex="1" connectable="0">
          <mxGeometry x="287" y="460" width="473" height="40" as="geometry" />
        </mxCell>
        <mxCell id="qSg4JuXbs9vaGkgjDfCH-313" value="Add another professional experience" style="html=1;shadow=0;dashed=0;shape=mxgraph.bootstrap.rrect;rSize=5;strokeColor=none;strokeWidth=1;fillColor=#E8E8E8;fontColor=#000000;whiteSpace=wrap;align=center;verticalAlign=middle;spacingLeft=0;fontStyle=0;fontSize=10;spacing=5;" parent="qSg4JuXbs9vaGkgjDfCH-312" vertex="1">
          <mxGeometry width="473" height="40" as="geometry" />
        </mxCell>
        <mxCell id="qSg4JuXbs9vaGkgjDfCH-314" value="" style="html=1;verticalLabelPosition=bottom;align=center;labelBackgroundColor=#ffffff;verticalAlign=top;strokeWidth=1;strokeColor=#000000;shadow=0;dashed=0;shape=mxgraph.ios7.icons.add;fillColor=none;" parent="qSg4JuXbs9vaGkgjDfCH-312" vertex="1">
          <mxGeometry x="129.00458333333333" y="15" width="9.854166666666668" height="10" as="geometry" />
        </mxCell>
        <mxCell id="qSg4JuXbs9vaGkgjDfCH-319" value="" style="group" parent="qSg4JuXbs9vaGkgjDfCH-297" vertex="1" connectable="0">
          <mxGeometry x="287" y="380" width="451" height="30" as="geometry" />
        </mxCell>
        <mxCell id="qSg4JuXbs9vaGkgjDfCH-320" value="&lt;div&gt;&lt;b&gt;Associate Analyst&lt;/b&gt;&lt;/div&gt;&lt;div&gt;&lt;font style=&quot;font-size: 8px;&quot;&gt;Telstra&lt;/font&gt;&lt;/div&gt;&lt;div&gt;&lt;font color=&quot;#a1a1a1&quot; style=&quot;font-size: 8px;&quot;&gt;Sep 2012 - Jul 2020&lt;/font&gt;&lt;/div&gt;" style="text;html=1;align=left;verticalAlign=middle;whiteSpace=wrap;rounded=0;fontFamily=Helvetica;fontSize=11;fontColor=default;labelBackgroundColor=default;" parent="qSg4JuXbs9vaGkgjDfCH-319" vertex="1">
          <mxGeometry y="-5" width="203" height="40" as="geometry" />
        </mxCell>
        <mxCell id="qSg4JuXbs9vaGkgjDfCH-321" value="" style="shape=image;html=1;verticalAlign=top;verticalLabelPosition=bottom;labelBackgroundColor=#ffffff;imageAspect=0;aspect=fixed;image=https://cdn0.iconfinder.com/data/icons/google-material-design-3-0/48/ic_delete_forever_48px-128.png;fontFamily=Helvetica;fontSize=11;fontColor=default;" parent="qSg4JuXbs9vaGkgjDfCH-319" vertex="1">
          <mxGeometry x="431" y="6" width="20" height="20" as="geometry" />
        </mxCell>
        <mxCell id="qSg4JuXbs9vaGkgjDfCH-322" value="" style="html=1;dashed=0;aspect=fixed;verticalLabelPosition=bottom;verticalAlign=top;align=center;shape=mxgraph.gmdl.edit;strokeColor=none;fillColor=#000000;shadow=0;sketch=0;fontFamily=Helvetica;fontSize=11;fontColor=default;labelBackgroundColor=default;" parent="qSg4JuXbs9vaGkgjDfCH-319" vertex="1">
          <mxGeometry x="400" y="7" width="16" height="16" as="geometry" />
        </mxCell>
        <mxCell id="qSg4JuXbs9vaGkgjDfCH-325" value="" style="group" parent="qSg4JuXbs9vaGkgjDfCH-297" vertex="1" connectable="0">
          <mxGeometry x="287" y="320" width="451" height="30" as="geometry" />
        </mxCell>
        <mxCell id="qSg4JuXbs9vaGkgjDfCH-326" value="&lt;div&gt;&lt;font style=&quot;&quot;&gt;&lt;b&gt;Senior Risk Analyst&lt;/b&gt;&lt;/font&gt;&lt;/div&gt;&lt;div&gt;&lt;font style=&quot;font-size: 8px;&quot;&gt;Westpac&lt;/font&gt;&lt;/div&gt;&lt;div&gt;&lt;font color=&quot;#a1a1a1&quot; style=&quot;font-size: 8px;&quot;&gt;Sep 2020 - Present&lt;/font&gt;&lt;/div&gt;" style="text;html=1;align=left;verticalAlign=middle;whiteSpace=wrap;rounded=0;fontFamily=Helvetica;fontSize=11;fontColor=default;labelBackgroundColor=default;" parent="qSg4JuXbs9vaGkgjDfCH-325" vertex="1">
          <mxGeometry y="-5" width="203" height="40" as="geometry" />
        </mxCell>
        <mxCell id="qSg4JuXbs9vaGkgjDfCH-327" value="" style="shape=image;html=1;verticalAlign=top;verticalLabelPosition=bottom;labelBackgroundColor=#ffffff;imageAspect=0;aspect=fixed;image=https://cdn0.iconfinder.com/data/icons/google-material-design-3-0/48/ic_delete_forever_48px-128.png;fontFamily=Helvetica;fontSize=11;fontColor=default;" parent="qSg4JuXbs9vaGkgjDfCH-325" vertex="1">
          <mxGeometry x="431" y="6" width="20" height="20" as="geometry" />
        </mxCell>
        <mxCell id="qSg4JuXbs9vaGkgjDfCH-328" value="" style="html=1;dashed=0;aspect=fixed;verticalLabelPosition=bottom;verticalAlign=top;align=center;shape=mxgraph.gmdl.edit;strokeColor=none;fillColor=#000000;shadow=0;sketch=0;fontFamily=Helvetica;fontSize=11;fontColor=default;labelBackgroundColor=default;" parent="qSg4JuXbs9vaGkgjDfCH-325" vertex="1">
          <mxGeometry x="400" y="7" width="16" height="16" as="geometry" />
        </mxCell>
        <mxCell id="qSg4JuXbs9vaGkgjDfCH-329" style="edgeStyle=orthogonalEdgeStyle;shape=connector;curved=0;rounded=1;orthogonalLoop=1;jettySize=auto;html=1;strokeColor=default;align=center;verticalAlign=middle;fontFamily=Helvetica;fontSize=11;fontColor=default;labelBackgroundColor=default;endArrow=classic;flowAnimation=1;" parent="1" source="qSg4JuXbs9vaGkgjDfCH-132" target="qSg4JuXbs9vaGkgjDfCH-297" edge="1">
          <mxGeometry relative="1" as="geometry" />
        </mxCell>
        <mxCell id="qSg4JuXbs9vaGkgjDfCH-330" value="&lt;span style=&quot;font-size: 20px;&quot;&gt;&lt;b&gt;adding another professional experience or editing existing is the same behaviour as education/qualifications&lt;/b&gt;&lt;/span&gt;" style="text;html=1;align=center;verticalAlign=middle;whiteSpace=wrap;rounded=0;fontFamily=Courier New;fillColor=#1ba1e2;strokeColor=#006EAF;fontColor=#ffffff;" parent="1" vertex="1">
          <mxGeometry x="4690" y="1800" width="500" height="130" as="geometry" />
        </mxCell>
        <mxCell id="qSg4JuXbs9vaGkgjDfCH-339" value="" style="group" parent="1" vertex="1" connectable="0">
          <mxGeometry x="2500" y="2720" width="137" height="82" as="geometry" />
        </mxCell>
        <mxCell id="qSg4JuXbs9vaGkgjDfCH-340" value="" style="group" parent="qSg4JuXbs9vaGkgjDfCH-339" vertex="1" connectable="0">
          <mxGeometry width="137" height="40" as="geometry" />
        </mxCell>
        <mxCell id="qSg4JuXbs9vaGkgjDfCH-341" value="Next step" style="rounded=1;fillColor=#0057D8;strokeColor=none;html=1;whiteSpace=wrap;fontColor=#ffffff;align=center;verticalAlign=middle;fontStyle=0;fontSize=12;sketch=0;" parent="qSg4JuXbs9vaGkgjDfCH-340" vertex="1">
          <mxGeometry width="128" height="40" as="geometry" />
        </mxCell>
        <mxCell id="qSg4JuXbs9vaGkgjDfCH-342" value="&lt;b&gt;&lt;font color=&quot;#ffffff&quot;&gt;&amp;gt;&lt;/font&gt;&lt;/b&gt;" style="text;html=1;align=center;verticalAlign=middle;whiteSpace=wrap;rounded=0;" parent="qSg4JuXbs9vaGkgjDfCH-340" vertex="1">
          <mxGeometry x="77" y="4.5" width="60" height="30" as="geometry" />
        </mxCell>
        <mxCell id="qSg4JuXbs9vaGkgjDfCH-343" value="&lt;font color=&quot;#a1a1a1&quot;&gt;&amp;lt;&amp;nbsp; Previous step&lt;/font&gt;" style="fillColor=none;strokeColor=none;html=1;fontColor=#0057D8;align=center;verticalAlign=middle;fontStyle=0;fontSize=12;fontFamily=Helvetica;labelBackgroundColor=default;" parent="qSg4JuXbs9vaGkgjDfCH-339" vertex="1">
          <mxGeometry x="21" y="49" width="86" height="33" as="geometry" />
        </mxCell>
        <mxCell id="qSg4JuXbs9vaGkgjDfCH-344" value="" style="group" parent="1" vertex="1" connectable="0">
          <mxGeometry x="4120" y="870" width="137" height="82" as="geometry" />
        </mxCell>
        <mxCell id="qSg4JuXbs9vaGkgjDfCH-345" value="" style="group" parent="qSg4JuXbs9vaGkgjDfCH-344" vertex="1" connectable="0">
          <mxGeometry width="137" height="40" as="geometry" />
        </mxCell>
        <mxCell id="qSg4JuXbs9vaGkgjDfCH-346" value="Next step" style="rounded=1;fillColor=#0057D8;strokeColor=none;html=1;whiteSpace=wrap;fontColor=#ffffff;align=center;verticalAlign=middle;fontStyle=0;fontSize=12;sketch=0;" parent="qSg4JuXbs9vaGkgjDfCH-345" vertex="1">
          <mxGeometry width="128" height="40" as="geometry" />
        </mxCell>
        <mxCell id="qSg4JuXbs9vaGkgjDfCH-347" value="&lt;b&gt;&lt;font color=&quot;#ffffff&quot;&gt;&amp;gt;&lt;/font&gt;&lt;/b&gt;" style="text;html=1;align=center;verticalAlign=middle;whiteSpace=wrap;rounded=0;" parent="qSg4JuXbs9vaGkgjDfCH-345" vertex="1">
          <mxGeometry x="77" y="4.5" width="60" height="30" as="geometry" />
        </mxCell>
        <mxCell id="qSg4JuXbs9vaGkgjDfCH-348" value="&lt;font color=&quot;#a1a1a1&quot;&gt;&amp;lt;&amp;nbsp; Previous step&lt;/font&gt;" style="fillColor=none;strokeColor=none;html=1;fontColor=#0057D8;align=center;verticalAlign=middle;fontStyle=0;fontSize=12;fontFamily=Helvetica;labelBackgroundColor=default;" parent="qSg4JuXbs9vaGkgjDfCH-344" vertex="1">
          <mxGeometry x="21" y="49" width="86" height="33" as="geometry" />
        </mxCell>
        <mxCell id="qSg4JuXbs9vaGkgjDfCH-349" value="" style="group" parent="1" vertex="1" connectable="0">
          <mxGeometry x="4870" y="1640" width="137" height="82" as="geometry" />
        </mxCell>
        <mxCell id="qSg4JuXbs9vaGkgjDfCH-353" value="&lt;font color=&quot;#a1a1a1&quot;&gt;&amp;lt;&amp;nbsp; Previous step&lt;/font&gt;" style="fillColor=none;strokeColor=none;html=1;fontColor=#0057D8;align=center;verticalAlign=middle;fontStyle=0;fontSize=12;fontFamily=Helvetica;labelBackgroundColor=default;" parent="qSg4JuXbs9vaGkgjDfCH-349" vertex="1">
          <mxGeometry x="21" y="49" width="86" height="33" as="geometry" />
        </mxCell>
        <mxCell id="qSg4JuXbs9vaGkgjDfCH-357" style="edgeStyle=orthogonalEdgeStyle;shape=connector;curved=0;rounded=1;orthogonalLoop=1;jettySize=auto;html=1;strokeColor=default;align=center;verticalAlign=middle;fontFamily=Helvetica;fontSize=11;fontColor=default;labelBackgroundColor=default;endArrow=classic;flowAnimation=1;" parent="1" source="qSg4JuXbs9vaGkgjDfCH-348" target="qSg4JuXbs9vaGkgjDfCH-142" edge="1">
          <mxGeometry relative="1" as="geometry" />
        </mxCell>
        <mxCell id="qSg4JuXbs9vaGkgjDfCH-358" value="if no education and qualifications entries" style="edgeStyle=orthogonalEdgeStyle;shape=connector;curved=0;rounded=1;orthogonalLoop=1;jettySize=auto;html=1;strokeColor=default;align=center;verticalAlign=middle;fontFamily=Helvetica;fontSize=11;fontColor=default;labelBackgroundColor=default;endArrow=classic;flowAnimation=1;" parent="1" source="qSg4JuXbs9vaGkgjDfCH-348" target="l2NazpN1zg4X8K2ymPKM-34" edge="1">
          <mxGeometry relative="1" as="geometry" />
        </mxCell>
        <mxCell id="qSg4JuXbs9vaGkgjDfCH-350" value="" style="group" parent="1" vertex="1" connectable="0">
          <mxGeometry x="4870" y="1645" width="137" height="40" as="geometry" />
        </mxCell>
        <mxCell id="qSg4JuXbs9vaGkgjDfCH-351" value="Next step" style="rounded=1;fillColor=#0057D8;strokeColor=none;html=1;whiteSpace=wrap;fontColor=#ffffff;align=center;verticalAlign=middle;fontStyle=0;fontSize=12;sketch=0;" parent="qSg4JuXbs9vaGkgjDfCH-350" vertex="1">
          <mxGeometry width="128" height="40" as="geometry" />
        </mxCell>
        <mxCell id="qSg4JuXbs9vaGkgjDfCH-352" value="&lt;b&gt;&lt;font color=&quot;#ffffff&quot;&gt;&amp;gt;&lt;/font&gt;&lt;/b&gt;" style="text;html=1;align=center;verticalAlign=middle;whiteSpace=wrap;rounded=0;" parent="qSg4JuXbs9vaGkgjDfCH-350" vertex="1">
          <mxGeometry x="77" y="4.5" width="60" height="30" as="geometry" />
        </mxCell>
        <mxCell id="qSg4JuXbs9vaGkgjDfCH-359" value="1: Personal deets" style="text;html=1;fontSize=100;fontStyle=1;verticalAlign=middle;align=center;fontFamily=Helvetica;labelBackgroundColor=none;fillColor=#647687;fontColor=#ffffff;strokeColor=#314354;" parent="1" vertex="1">
          <mxGeometry x="102.5" y="-150" width="995" height="140" as="geometry" />
        </mxCell>
        <mxCell id="qSg4JuXbs9vaGkgjDfCH-362" value="2: Edumacation" style="text;html=1;fontSize=100;fontStyle=1;verticalAlign=middle;align=center;fontFamily=Helvetica;labelBackgroundColor=none;fillColor=#647687;fontColor=#ffffff;strokeColor=#314354;" parent="1" vertex="1">
          <mxGeometry x="1240" y="-150" width="2020" height="140" as="geometry" />
        </mxCell>
        <mxCell id="qSg4JuXbs9vaGkgjDfCH-363" value="3: Profesh" style="text;html=1;fontSize=100;fontStyle=1;verticalAlign=middle;align=center;fontFamily=Helvetica;labelBackgroundColor=none;fillColor=#647687;fontColor=#ffffff;strokeColor=#314354;" parent="1" vertex="1">
          <mxGeometry x="3640" y="-153" width="1980" height="140" as="geometry" />
        </mxCell>
        <mxCell id="qSg4JuXbs9vaGkgjDfCH-364" value="4: Download" style="text;html=1;fontSize=100;fontStyle=1;verticalAlign=middle;align=center;fontFamily=Helvetica;labelBackgroundColor=none;fillColor=#647687;fontColor=#ffffff;strokeColor=#314354;" parent="1" vertex="1">
          <mxGeometry x="5900" y="-150" width="1980" height="140" as="geometry" />
        </mxCell>
        <mxCell id="qSg4JuXbs9vaGkgjDfCH-365" value="" style="strokeWidth=1;shadow=0;dashed=0;align=center;html=1;shape=mxgraph.mockup.containers.browserWindow;rSize=0;strokeColor=#666666;strokeColor2=#008cff;strokeColor3=#c4c4c4;mainText=,;recursiveResize=0;" parent="1" vertex="1">
          <mxGeometry x="5900" y="10" width="1080" height="950" as="geometry" />
        </mxCell>
        <mxCell id="qSg4JuXbs9vaGkgjDfCH-366" value="Generate your CV!" style="strokeWidth=1;shadow=0;dashed=0;align=center;html=1;shape=mxgraph.mockup.containers.anchor;fontSize=17;fontColor=#666666;align=left;whiteSpace=wrap;" parent="qSg4JuXbs9vaGkgjDfCH-365" vertex="1">
          <mxGeometry x="60" y="12" width="190" height="26" as="geometry" />
        </mxCell>
        <mxCell id="qSg4JuXbs9vaGkgjDfCH-367" value="https://www.draw.io" style="strokeWidth=1;shadow=0;dashed=0;align=center;html=1;shape=mxgraph.mockup.containers.anchor;rSize=0;fontSize=17;fontColor=#666666;align=left;" parent="qSg4JuXbs9vaGkgjDfCH-365" vertex="1">
          <mxGeometry x="130" y="60" width="250" height="26" as="geometry" />
        </mxCell>
        <mxCell id="qSg4JuXbs9vaGkgjDfCH-368" value="" style="html=1;shadow=0;dashed=0;fillColor=#F8F9FA;strokeColor=none;fontSize=16;fontColor=#181819;align=left;spacing=2;spacingLeft=55;" parent="qSg4JuXbs9vaGkgjDfCH-365" vertex="1">
          <mxGeometry y="110" width="1080" height="60" as="geometry" />
        </mxCell>
        <mxCell id="qSg4JuXbs9vaGkgjDfCH-369" value="" style="shape=image;html=1;verticalAlign=top;verticalLabelPosition=bottom;labelBackgroundColor=#ffffff;imageAspect=0;aspect=fixed;image=https://cdn0.iconfinder.com/data/icons/phosphor-fill-vol-4/256/placeholder-fill-128.png" parent="qSg4JuXbs9vaGkgjDfCH-365" vertex="1">
          <mxGeometry x="40" y="125" width="34" height="34" as="geometry" />
        </mxCell>
        <mxCell id="qSg4JuXbs9vaGkgjDfCH-370" value="&lt;b style=&quot;font-size: 16px;&quot;&gt;CV Generator&lt;/b&gt;" style="text;html=1;align=left;verticalAlign=middle;whiteSpace=wrap;rounded=0;fontSize=16;" parent="qSg4JuXbs9vaGkgjDfCH-365" vertex="1">
          <mxGeometry x="85" y="127" width="140" height="30" as="geometry" />
        </mxCell>
        <mxCell id="qSg4JuXbs9vaGkgjDfCH-371" value="&lt;b style=&quot;&quot;&gt;&lt;font style=&quot;font-size: 20px;&quot;&gt;Download&lt;/font&gt;&lt;/b&gt;" style="text;html=1;align=center;verticalAlign=middle;whiteSpace=wrap;rounded=0;fontSize=28;" parent="qSg4JuXbs9vaGkgjDfCH-365" vertex="1">
          <mxGeometry x="397.5" y="210" width="285" height="30" as="geometry" />
        </mxCell>
        <mxCell id="qSg4JuXbs9vaGkgjDfCH-410" value="Word document" style="rounded=1;fillColor=#0057D8;strokeColor=none;html=1;whiteSpace=wrap;fontColor=#ffffff;align=center;verticalAlign=middle;fontStyle=0;fontSize=12;sketch=0;fontFamily=Helvetica;labelBackgroundColor=none;" parent="qSg4JuXbs9vaGkgjDfCH-365" vertex="1">
          <mxGeometry x="380" y="290" width="146" height="40" as="geometry" />
        </mxCell>
        <mxCell id="qSg4JuXbs9vaGkgjDfCH-412" value="PDF document" style="rounded=1;fillColor=#0057D8;strokeColor=none;html=1;whiteSpace=wrap;fontColor=#ffffff;align=center;verticalAlign=middle;fontStyle=0;fontSize=12;sketch=0;fontFamily=Helvetica;labelBackgroundColor=none;" parent="qSg4JuXbs9vaGkgjDfCH-365" vertex="1">
          <mxGeometry x="550" y="290" width="146" height="40" as="geometry" />
        </mxCell>
        <mxCell id="qSg4JuXbs9vaGkgjDfCH-413" style="edgeStyle=orthogonalEdgeStyle;shape=connector;curved=0;rounded=1;orthogonalLoop=1;jettySize=auto;html=1;strokeColor=default;align=center;verticalAlign=middle;fontFamily=Helvetica;fontSize=11;fontColor=default;labelBackgroundColor=default;endArrow=classic;flowAnimation=1;" parent="1" source="qSg4JuXbs9vaGkgjDfCH-346" target="qSg4JuXbs9vaGkgjDfCH-365" edge="1">
          <mxGeometry relative="1" as="geometry" />
        </mxCell>
      </root>
    </mxGraphModel>
  </diagram>
</mxfile>
